<?xml version="1.0" encoding="UTF-8" standalone="no"?>
<!-- Created with Inkscape (http://www.inkscape.org/) -->

<svg
   xmlns:dc="http://purl.org/dc/elements/1.1/"
   xmlns:cc="http://creativecommons.org/ns#"
   xmlns:rdf="http://www.w3.org/1999/02/22-rdf-syntax-ns#"
   xmlns:svg="http://www.w3.org/2000/svg"
   xmlns="http://www.w3.org/2000/svg"
   xmlns:sodipodi="http://sodipodi.sourceforge.net/DTD/sodipodi-0.dtd"
   xmlns:inkscape="http://www.inkscape.org/namespaces/inkscape"
   width="1400px"
   height="800px"
   viewBox="0 0 1400 800"
   version="1.1"
   id="SVGRoot"
   inkscape:version="0.92.4 (5da689c313, 2019-01-14)"
   sodipodi:docname="404.svg">
  <title
     id="title1405">404 file not found svg art</title>
  <defs
     id="defs815">
    <inkscape:path-effect
       effect="skeletal"
       id="path-effect1403"
       is_visible="true"
       pattern="M 0,5 C 0,2.24 2.24,0 5,0 7.76,0 10,2.24 10,5 10,7.76 7.76,10 5,10 2.24,10 0,7.76 0,5 Z"
       copytype="single_stretched"
       prop_scale="1"
       scale_y_rel="false"
       spacing="0"
       normal_offset="0"
       tang_offset="0"
       prop_units="false"
       vertical_pattern="false"
       fuse_tolerance="0" />
  </defs>
  <sodipodi:namedview
     id="base"
     pagecolor="#ffffff"
     bordercolor="#666666"
     borderopacity="1.0"
     inkscape:pageopacity="0.0"
     inkscape:pageshadow="2"
     inkscape:zoom="0.35"
     inkscape:cx="700"
     inkscape:cy="400"
     inkscape:document-units="px"
     inkscape:current-layer="layer1"
     showgrid="false"
     inkscape:window-width="1366"
     inkscape:window-height="715"
     inkscape:window-x="-8"
     inkscape:window-y="-8"
     inkscape:window-maximized="1" />
  <metadata
     id="metadata818">
    <rdf:RDF>
      <cc:Work
         rdf:about="">
        <dc:format>image/svg+xml</dc:format>
        <dc:type
           rdf:resource="http://purl.org/dc/dcmitype/StillImage" />
        <dc:title>404 file not found svg art</dc:title>
      </cc:Work>
    </rdf:RDF>
  </metadata>
  <g
     inkscape:label="Layer 1"
     inkscape:groupmode="layer"
     id="layer1">
    <text
       xml:space="preserve"
       style="font-style:normal;font-variant:normal;font-weight:normal;font-stretch:normal;font-size:574.59814453px;line-height:1.25;font-family:Oswald;-inkscape-font-specification:Oswald;letter-spacing:0px;word-spacing:0px;opacity:0.71959462;fill:#6037b7;fill-opacity:1;stroke:none;stroke-width:1.72379434"
       x="312.94901"
       y="572.65247"
       id="text1373"
       transform="scale(0.90691571,1.1026383)"><tspan
         sodipodi:role="line"
         id="tspan1371"
         x="312.94901"
         y="572.65247"
         style="stroke-width:1.72379434">4</tspan></text>
    <text
       xml:space="preserve"
       style="font-style:normal;font-variant:normal;font-weight:normal;font-stretch:normal;font-size:573.11639404px;line-height:1.25;font-family:Oswald;-inkscape-font-specification:Oswald;letter-spacing:0px;word-spacing:0px;opacity:0.71959462;fill:#6037b7;fill-opacity:1;stroke:none;stroke-width:1.71934903"
       x="969.68469"
       y="565.22272"
       id="text1373-4"
       transform="scale(0.90926052,1.0997948)"><tspan
         sodipodi:role="line"
         id="tspan1371-8"
         x="969.68469"
         y="565.22272"
         style="stroke-width:1.71934903">4</tspan></text>
    <text
       xml:space="preserve"
       style="font-style:normal;font-variant:normal;font-weight:normal;font-stretch:normal;font-size:654.74676514px;line-height:1.25;font-family:'Segoe Print';-inkscape-font-specification:'Segoe Print';letter-spacing:0px;word-spacing:0px;fill:#000000;fill-opacity:1;stroke:none;stroke-width:3.27373385"
       x="594.77301"
       y="575.08258"
       id="text1399"
       transform="scale(0.94739622,1.0555246)"><tspan
         sodipodi:role="line"
         id="tspan1397"
         x="594.77301"
         y="575.08258"
         style="stroke-width:3.27373385">?</tspan></text>
    <path
       style="fill:#f78e00;stroke:none;stroke-width:1px;stroke-linecap:butt;stroke-linejoin:miter;stroke-opacity:1;fill-opacity:1"
       d="m 840,554.28571 c 0.22532,-0.90127 41.76325,8.87552 114.86936,28.56889 1.72745,-0.45136 -78.48422,20.5288 -76.75677,20.07744 0,0 -4e-5,10e-6 -4e-5,10e-6 0.76861,0.3325 230.09575,99.72076 230.86435,100.05326 -11.6491,-2.38666 -221.55379,-45.31666 -233.20292,-47.70332 1.52779,2.26433 58.17288,86.23874 59.70065,88.50306 -51.22873,-18.34861 -128.31754,-45.94519 -179.54628,-64.29381 -3e-5,0.008 -0.0154,3.464 -0.0154,3.47155 -0.0433,9.73486 -0.42927,95.11616 -0.47254,104.85102 10.01798,6.04137 -129.16296,-77.99838 -119.14499,-71.95702 -75.02835,12.67546 -144.33923,24.42905 -211.45718,35.94591 0,0 6e-5,-4e-5 6e-5,-4e-5 43.68829,-31.18243 116.54296,-83.18176 160.23124,-114.36419 9.0728,-2.2131 -254.45955,62.05678 -245.38675,59.84369 43.69789,-30.60837 68.46673,-46.48649 68.88866,-45.85359 0.42216,0.63324 -23.7476,17.37987 -68.2542,45.57499 4.20769,-1.0292 241.83414,-59.1271 246.04183,-60.15631 -74.69222,53.392 -85.07643,60.81515 -159.76865,114.20715 0,0 -5e-5,4e-5 -5e-5,4e-5 67.1218,-13.87979 136.41886,-28.34944 211.39991,-44.0541 6.23562,4.14107 108.90515,72.47334 115.14076,76.61443 0.0978,21.62454 -0.57035,-126.95811 -0.47254,-105.33357 3e-5,0.008 -0.0154,-3.49448 -0.0154,-3.48672 72.6759,27.03443 107.77782,40.10032 180.45372,67.13475 1.91725,2.81781 -62.21661,-91.45761 -60.29936,-88.63979 -20.15594,-4.23804 255.52433,53.67756 235.36843,49.43953 1.107,0.47629 -233.09964,-100.42303 -231.99269,-99.94674 0,0 4e-5,-10e-6 4e-5,-10e-6 1.8966,-0.4869 75.63226,-19.43564 77.52885,-19.92254 C 880.99276,566.09848 839.77451,555.18765 840,554.28571 Z"
       id="path1401"
       inkscape:connector-curvature="0"
       inkscape:path-effect="#path-effect1403"
       inkscape:original-d="m 840,554.28571 114.28571,28.57143 -77.14285,20 231.42854,100 -234.28569,-48.57143 60,88.57143 -180,-65.71428 v 108.57143 l -117.14285,-74.28572 -211.42857,40 160,-114.28571 -245.71429,60 68.57143,-45.71429"
       transform="translate(-5.7142857)" />
  </g>
</svg>
