<?xml version="1.0" encoding="UTF-8" standalone="no"?>
<!-- Created with Inkscape (http://www.inkscape.org/) -->

<svg
   xmlns:dc="http://purl.org/dc/elements/1.1/"
   xmlns:cc="http://creativecommons.org/ns#"
   xmlns:rdf="http://www.w3.org/1999/02/22-rdf-syntax-ns#"
   xmlns:svg="http://www.w3.org/2000/svg"
   xmlns="http://www.w3.org/2000/svg"
   xmlns:xlink="http://www.w3.org/1999/xlink"
   xmlns:sodipodi="http://sodipodi.sourceforge.net/DTD/sodipodi-0.dtd"
   xmlns:inkscape="http://www.inkscape.org/namespaces/inkscape"
   width="1920px"
   height="1080px"
   viewBox="0 0 1920 1080"
   version="1.1"
   id="SVGRoot"
   inkscape:version="0.92.4 (5da689c313, 2019-01-14)"
   sodipodi:docname="header-svg.svg">
  <title
     id="title2917">svg photo for header</title>
  <defs
     id="defs1366">
    <inkscape:path-effect
       effect="skeletal"
       id="path-effect2800"
       is_visible="true"
       pattern="M 0,5 C 0,2.24 2.24,0 5,0 7.76,0 10,2.24 10,5 10,7.76 7.76,10 5,10 2.24,10 0,7.76 0,5 Z"
       copytype="single_stretched"
       prop_scale="1"
       scale_y_rel="false"
       spacing="0"
       normal_offset="0"
       tang_offset="0"
       prop_units="false"
       vertical_pattern="false"
       fuse_tolerance="0" />
    <inkscape:path-effect
       effect="skeletal"
       id="path-effect2796"
       is_visible="true"
       pattern="M 0,5 C 0,2.24 2.24,0 5,0 7.76,0 10,2.24 10,5 10,7.76 7.76,10 5,10 2.24,10 0,7.76 0,5 Z"
       copytype="single_stretched"
       prop_scale="1"
       scale_y_rel="false"
       spacing="0"
       normal_offset="0"
       tang_offset="0"
       prop_units="false"
       vertical_pattern="false"
       fuse_tolerance="0" />
    <inkscape:path-effect
       effect="skeletal"
       id="path-effect2792"
       is_visible="true"
       pattern="M 0,5 C 0,2.24 2.24,0 5,0 7.76,0 10,2.24 10,5 10,7.76 7.76,10 5,10 2.24,10 0,7.76 0,5 Z"
       copytype="single_stretched"
       prop_scale="1"
       scale_y_rel="false"
       spacing="0"
       normal_offset="0"
       tang_offset="0"
       prop_units="false"
       vertical_pattern="false"
       fuse_tolerance="0" />
    <inkscape:path-effect
       effect="skeletal"
       id="path-effect2784"
       is_visible="true"
       pattern="M 0,5 C 0,2.24 2.24,0 5,0 7.76,0 10,2.24 10,5 10,7.76 7.76,10 5,10 2.24,10 0,7.76 0,5 Z"
       copytype="single_stretched"
       prop_scale="1"
       scale_y_rel="false"
       spacing="0"
       normal_offset="0"
       tang_offset="0"
       prop_units="false"
       vertical_pattern="false"
       fuse_tolerance="0" />
    <inkscape:path-effect
       effect="skeletal"
       id="path-effect2674"
       is_visible="true"
       pattern="M 0,5 C 0,2.24 2.24,0 5,0 7.76,0 10,2.24 10,5 10,7.76 7.76,10 5,10 2.24,10 0,7.76 0,5 Z"
       copytype="single_stretched"
       prop_scale="1"
       scale_y_rel="false"
       spacing="0"
       normal_offset="0"
       tang_offset="0"
       prop_units="false"
       vertical_pattern="false"
       fuse_tolerance="0" />
    <linearGradient
       id="linearGradient2624"
       inkscape:collect="always">
      <stop
         id="stop2620"
         offset="0"
         style="stop-color:#ff68ff;stop-opacity:1" />
      <stop
         id="stop2622"
         offset="1"
         style="stop-color:#673ab7;stop-opacity:1" />
    </linearGradient>
    <linearGradient
       inkscape:collect="always"
       id="linearGradient2594">
      <stop
         style="stop-color:#3268e2;stop-opacity:1"
         offset="0"
         id="stop2590" />
      <stop
         style="stop-color:#ff00ff;stop-opacity:0.376"
         offset="1"
         id="stop2592" />
    </linearGradient>
    <linearGradient
       id="2540-0-5-10"
       inkscape:collect="always">
      <stop
         id="stop2546"
         offset="0"
         style="stop-color:#000080;stop-opacity:1;" />
      <stop
         id="stop2548"
         offset="1"
         style="stop-color:#ff00fa;stop-opacity:0" />
    </linearGradient>
    <linearGradient
       inkscape:collect="always"
       xlink:href="#2540-0-5-10"
       id="linearGradient2542"
       x1="1147.9702"
       y1="1478.6096"
       x2="-678.38458"
       y2="1381.6161"
       gradientUnits="userSpaceOnUse"
       gradientTransform="translate(9.5076663,-197.71398)" />
    <linearGradient
       inkscape:collect="always"
       xlink:href="#linearGradient2624"
       id="linearGradient2542-3"
       x1="1201.3263"
       y1="1456.5149"
       x2="-6.291862"
       y2="1455.6002"
       gradientUnits="userSpaceOnUse"
       gradientTransform="translate(-729.13033,-965.1531)" />
    <linearGradient
       inkscape:collect="always"
       xlink:href="#linearGradient2594"
       id="linearGradient2542-3-3"
       x1="1014.825"
       y1="1475.2753"
       x2="-170.94965"
       y2="1390.3999"
       gradientUnits="userSpaceOnUse"
       gradientTransform="translate(-1090.5578,-1099.2904)" />
    <inkscape:path-effect
       effect="skeletal"
       id="path-effect2674-6"
       is_visible="true"
       pattern="M 0,5 C 0,2.24 2.24,0 5,0 7.76,0 10,2.24 10,5 10,7.76 7.76,10 5,10 2.24,10 0,7.76 0,5 Z"
       copytype="single_stretched"
       prop_scale="1"
       scale_y_rel="false"
       spacing="0"
       normal_offset="0"
       tang_offset="0"
       prop_units="false"
       vertical_pattern="false"
       fuse_tolerance="0" />
    <inkscape:path-effect
       effect="skeletal"
       id="path-effect2674-6-5"
       is_visible="true"
       pattern="M 0,5 C 0,2.24 2.24,0 5,0 7.76,0 10,2.24 10,5 10,7.76 7.76,10 5,10 2.24,10 0,7.76 0,5 Z"
       copytype="single_stretched"
       prop_scale="1"
       scale_y_rel="false"
       spacing="0"
       normal_offset="0"
       tang_offset="0"
       prop_units="false"
       vertical_pattern="false"
       fuse_tolerance="0" />
    <inkscape:path-effect
       effect="skeletal"
       id="path-effect2674-62"
       is_visible="true"
       pattern="M 0,5 C 0,2.24 2.24,0 5,0 7.76,0 10,2.24 10,5 10,7.76 7.76,10 5,10 2.24,10 0,7.76 0,5 Z"
       copytype="single_stretched"
       prop_scale="1"
       scale_y_rel="false"
       spacing="0"
       normal_offset="0"
       tang_offset="0"
       prop_units="false"
       vertical_pattern="false"
       fuse_tolerance="0" />
    <inkscape:path-effect
       effect="skeletal"
       id="path-effect2674-6-5-9"
       is_visible="true"
       pattern="M 0,5 C 0,2.24 2.24,0 5,0 7.76,0 10,2.24 10,5 10,7.76 7.76,10 5,10 2.24,10 0,7.76 0,5 Z"
       copytype="single_stretched"
       prop_scale="1"
       scale_y_rel="false"
       spacing="0"
       normal_offset="0"
       tang_offset="0"
       prop_units="false"
       vertical_pattern="false"
       fuse_tolerance="0" />
    <inkscape:path-effect
       effect="skeletal"
       id="path-effect2674-62-5"
       is_visible="true"
       pattern="M 0,5 C 0,2.24 2.24,0 5,0 7.76,0 10,2.24 10,5 10,7.76 7.76,10 5,10 2.24,10 0,7.76 0,5 Z"
       copytype="single_stretched"
       prop_scale="1"
       scale_y_rel="false"
       spacing="0"
       normal_offset="0"
       tang_offset="0"
       prop_units="false"
       vertical_pattern="false"
       fuse_tolerance="0" />
    <inkscape:path-effect
       effect="skeletal"
       id="path-effect2674-6-7"
       is_visible="true"
       pattern="M 0,5 C 0,2.24 2.24,0 5,0 7.76,0 10,2.24 10,5 10,7.76 7.76,10 5,10 2.24,10 0,7.76 0,5 Z"
       copytype="single_stretched"
       prop_scale="1"
       scale_y_rel="false"
       spacing="0"
       normal_offset="0"
       tang_offset="0"
       prop_units="false"
       vertical_pattern="false"
       fuse_tolerance="0" />
    <inkscape:path-effect
       effect="skeletal"
       id="path-effect2674-4"
       is_visible="true"
       pattern="M 0,5 C 0,2.24 2.24,0 5,0 7.76,0 10,2.24 10,5 10,7.76 7.76,10 5,10 2.24,10 0,7.76 0,5 Z"
       copytype="single_stretched"
       prop_scale="1"
       scale_y_rel="false"
       spacing="0"
       normal_offset="0"
       tang_offset="0"
       prop_units="false"
       vertical_pattern="false"
       fuse_tolerance="0" />
    <linearGradient
       inkscape:collect="always"
       xlink:href="#linearGradient2624"
       id="linearGradient2542-3-2"
       x1="1201.3263"
       y1="1456.5149"
       x2="-6.291862"
       y2="1455.6002"
       gradientUnits="userSpaceOnUse"
       gradientTransform="translate(304.75906,163.46211)" />
    <linearGradient
       inkscape:collect="always"
       xlink:href="#linearGradient2594"
       id="linearGradient2903"
       x1="1502.8571"
       y1="137.14285"
       x2="2051.4285"
       y2="137.14285"
       gradientUnits="userSpaceOnUse" />
    <linearGradient
       inkscape:collect="always"
       xlink:href="#linearGradient2624"
       id="linearGradient2915"
       x1="1311.4286"
       y1="71.428574"
       x2="1497.1429"
       y2="71.428574"
       gradientUnits="userSpaceOnUse" />
  </defs>
  <sodipodi:namedview
     id="base"
     pagecolor="#ffffff"
     bordercolor="#666666"
     borderopacity="1.0"
     inkscape:pageopacity="0.0"
     inkscape:pageshadow="2"
     inkscape:zoom="0.35"
     inkscape:cx="987.59852"
     inkscape:cy="663.88096"
     inkscape:document-units="px"
     inkscape:current-layer="layer1"
     showgrid="false"
     inkscape:window-width="1366"
     inkscape:window-height="715"
     inkscape:window-x="-8"
     inkscape:window-y="-8"
     inkscape:window-maximized="1"
     showguides="true" />
  <metadata
     id="metadata1369">
    <rdf:RDF>
      <cc:Work
         rdf:about="">
        <dc:format>image/svg+xml</dc:format>
        <dc:type
           rdf:resource="http://purl.org/dc/dcmitype/StillImage" />
        <dc:title>svg photo for header</dc:title>
      </cc:Work>
    </rdf:RDF>
  </metadata>
  <g
     inkscape:label="Layer 1"
     inkscape:groupmode="layer"
     id="layer1">
    <rect
       style="opacity:0.5;fill:#2a3bd9;fill-opacity:1;fill-rule:nonzero;stroke-width:1.43302882"
       id="rect2494-24"
       width="1314.2856"
       height="185.71428"
       x="-1054.6042"
       y="141.39346"
       ry="92.85714"
       rx="0"
       transform="rotate(-31.810406)"
       inkscape:transform-center-x="237.14286"
       inkscape:transform-center-y="-102.85714" />
    <rect
       style="opacity:1;fill:url(#linearGradient2542-3);fill-opacity:1;fill-rule:nonzero;stroke-width:1.43302882"
       id="rect2494-7-2"
       width="1314.2856"
       height="185.71428"
       x="-789.74341"
       y="403.84671"
       ry="92.85714"
       rx="0"
       transform="rotate(-31.824477)" />
    <rect
       style="opacity:1;fill:url(#linearGradient2542-3-3);fill-opacity:1;fill-rule:nonzero;stroke-width:1.43302882"
       id="rect2494-7-2-6"
       width="1314.2856"
       height="185.71428"
       x="-1151.171"
       y="269.7095"
       ry="92.85714"
       rx="0"
       transform="rotate(-31.824477)" />
    <path
       style="fill:#d00000;stroke:none;stroke-width:0.378;stroke-linecap:butt;stroke-linejoin:miter;stroke-opacity:1;stroke-miterlimit:4;stroke-dasharray:none;fill-opacity:0"
       d="m -2.0203051,938.57864 c -0.015553,-1.10423 18.4361631,-3.33379 48.7249461,-2.80415 29.674215,0.5189 72.844319,3.88581 116.802279,18.45049 0,1e-5 1e-5,1e-5 1e-5,1e-5 1.54921,0.51397 3.10034,1.04361 4.65232,1.58955 16.58336,5.83351 31.74581,12.99572 45.35552,21.66777 12.87913,8.20593 23.73008,17.45953 32.53954,27.41889 8.14,9.2074 14.16878,18.6653 18.46934,27.6914 4.24635,8.973 6.71203,17.2793 8.07854,24.2871 0.94721,14.8111 1.04422,23.0938 0.14109,23.1203 0,0 0,0 0,0 0,0 0,0 0,0 0,0 0,0 -1e-5,0 0,0 0,0 0,0 0,0 0,0 0,0 0,0 0,0 0,0 -0.002,0 -0.002,0 -0.002,0 2.1e-4,0 4.2e-4,0 -0.002,0 0,0 0,0 0,0 0,0 0,0 0,0 0,0 0,0 0,0 0,0 -10e-6,0 -10e-6,0 0,0 0,0 0,0 0,0 0,0 0,0 -0.90453,0 -2.69762,-8.228 -5.04282,-22.2381 -1.95877,-6.4714 -4.87003,-13.9855 -9.33878,-22.0074 -4.54729,-8.228 -10.61075,-16.7796 -18.55093,-25.1321 -8.59331,-9.0448 -19.02555,-17.43694 -31.37323,-25.02265 -13.06067,-8.02328 -27.59214,-14.70787 -43.59671,-20.34887 -1.49718,-0.5277 -2.99431,-1.04171 -4.49027,-1.54263 0,0 -1e-5,0 -1e-5,0 C 117.99023,949.50668 75.519825,945.02251 46.374112,942.7633 16.492546,940.44705 -1.9978486,940.17305 -2.0203051,938.57864 Z"
       id="path2672"
       inkscape:connector-curvature="0"
       inkscape:path-effect="#path-effect2674"
       inkscape:original-d="M -2.0203051,938.57864 C 284.86302,934.53803 272.74119,1080 272.74119,1080" />
    <path
       transform="matrix(-1,0,0,1,545.20438,0)"
       style="fill:#d00000;stroke:none;stroke-width:0.37799999;stroke-linecap:butt;stroke-linejoin:miter;stroke-miterlimit:4;stroke-dasharray:none;stroke-opacity:1;fill-opacity:0"
       d="m -2.0203051,938.57864 c -0.015553,-1.10423 18.4361631,-3.33379 48.7249461,-2.80415 29.674215,0.5189 72.844319,3.88581 116.802279,18.45049 0,1e-5 1e-5,1e-5 1e-5,1e-5 1.54921,0.51397 3.10034,1.04361 4.65232,1.58955 16.58336,5.83351 31.74581,12.99572 45.35552,21.66777 12.87913,8.20593 23.73008,17.45953 32.53954,27.41889 8.14,9.2074 14.16878,18.6653 18.46934,27.6914 4.24635,8.973 6.71203,17.2793 8.07854,24.2871 0.94721,14.8111 1.04422,23.0938 0.14109,23.1203 0,0 0,0 0,0 0,0 0,0 0,0 0,0 0,0 -1e-5,0 0,0 0,0 0,0 0,0 0,0 0,0 0,0 0,0 0,0 -0.002,0 -0.002,0 -0.002,0 2.1e-4,0 4.2e-4,0 -0.002,0 0,0 0,0 0,0 0,0 0,0 0,0 0,0 0,0 0,0 0,0 -10e-6,0 -10e-6,0 0,0 0,0 0,0 0,0 0,0 0,0 -0.90453,0 -2.69762,-8.228 -5.04282,-22.2381 -1.95877,-6.4714 -4.87003,-13.9855 -9.33878,-22.0074 -4.54729,-8.228 -10.61075,-16.7796 -18.55093,-25.1321 -8.59331,-9.0448 -19.02555,-17.43694 -31.37323,-25.02265 -13.06067,-8.02328 -27.59214,-14.70787 -43.59671,-20.34887 -1.49718,-0.5277 -2.99431,-1.04171 -4.49027,-1.54263 0,0 -1e-5,0 -1e-5,0 C 117.99023,949.50668 75.519825,945.02251 46.374112,942.7633 16.492546,940.44705 -1.9978486,940.17305 -2.0203051,938.57864 Z"
       id="path2672-3"
       inkscape:connector-curvature="0"
       inkscape:path-effect="#path-effect2674-6"
       inkscape:original-d="M -2.0203051,938.57864 C 284.86302,934.53803 272.74119,1080 272.74119,1080" />
    <path
       transform="translate(503.19497,-0.57819391)"
       style="fill:#d00000;stroke:none;stroke-width:0.37799999;stroke-linecap:butt;stroke-linejoin:miter;stroke-miterlimit:4;stroke-dasharray:none;stroke-opacity:1;fill-opacity:0"
       d="m -2.0203051,938.57864 c -0.015553,-1.10423 18.4361631,-3.33379 48.7249461,-2.80415 29.674215,0.5189 72.844319,3.88581 116.802279,18.45049 0,1e-5 1e-5,1e-5 1e-5,1e-5 1.54921,0.51397 3.10034,1.04361 4.65232,1.58955 16.58336,5.83351 31.74581,12.99572 45.35552,21.66777 12.87913,8.20593 23.73008,17.45953 32.53954,27.41889 8.14,9.2074 14.16878,18.6653 18.46934,27.6914 4.24635,8.973 6.71203,17.2793 8.07854,24.2871 0.94721,14.8111 1.04422,23.0938 0.14109,23.1203 0,0 0,0 0,0 0,0 0,0 0,0 0,0 0,0 -1e-5,0 0,0 0,0 0,0 0,0 0,0 0,0 0,0 0,0 0,0 -0.002,0 -0.002,0 -0.002,0 2.1e-4,0 4.2e-4,0 -0.002,0 0,0 0,0 0,0 0,0 0,0 0,0 0,0 0,0 0,0 0,0 -10e-6,0 -10e-6,0 0,0 0,0 0,0 0,0 0,0 0,0 -0.90453,0 -2.69762,-8.228 -5.04282,-22.2381 -1.95877,-6.4714 -4.87003,-13.9855 -9.33878,-22.0074 -4.54729,-8.228 -10.61075,-16.7796 -18.55093,-25.1321 -8.59331,-9.0448 -19.02555,-17.43694 -31.37323,-25.02265 -13.06067,-8.02328 -27.59214,-14.70787 -43.59671,-20.34887 -1.49718,-0.5277 -2.99431,-1.04171 -4.49027,-1.54263 0,0 -1e-5,0 -1e-5,0 C 117.99023,949.50668 75.519825,945.02251 46.374112,942.7633 16.492546,940.44705 -1.9978486,940.17305 -2.0203051,938.57864 Z"
       id="path2672-7"
       inkscape:connector-curvature="0"
       inkscape:path-effect="#path-effect2674-62"
       inkscape:original-d="M -2.0203051,938.57864 C 284.86302,934.53803 272.74119,1080 272.74119,1080" />
    <path
       transform="matrix(-1,0,0,1,1048.3993,-0.57819391)"
       style="fill:#d00000;stroke:none;stroke-width:0.37799999;stroke-linecap:butt;stroke-linejoin:miter;stroke-miterlimit:4;stroke-dasharray:none;stroke-opacity:1;fill-opacity:0"
       d="m -2.0203051,938.57864 c -0.015553,-1.10423 18.4361631,-3.33379 48.7249461,-2.80415 29.674215,0.5189 72.844319,3.88581 116.802279,18.45049 0,1e-5 1e-5,1e-5 1e-5,1e-5 1.54921,0.51397 3.10034,1.04361 4.65232,1.58955 16.58336,5.83351 31.74581,12.99572 45.35552,21.66777 12.87913,8.20593 23.73008,17.45953 32.53954,27.41889 8.14,9.2074 14.16878,18.6653 18.46934,27.6914 4.24635,8.973 6.71203,17.2793 8.07854,24.2871 0.94721,14.8111 1.04422,23.0938 0.14109,23.1203 0,0 0,0 0,0 0,0 0,0 0,0 0,0 0,0 -1e-5,0 0,0 0,0 0,0 0,0 0,0 0,0 0,0 0,0 0,0 -0.002,0 -0.002,0 -0.002,0 2.1e-4,0 4.2e-4,0 -0.002,0 0,0 0,0 0,0 0,0 0,0 0,0 0,0 0,0 0,0 0,0 -10e-6,0 -10e-6,0 0,0 0,0 0,0 0,0 0,0 0,0 -0.90453,0 -2.69762,-8.228 -5.04282,-22.2381 -1.95877,-6.4714 -4.87003,-13.9855 -9.33878,-22.0074 -4.54729,-8.228 -10.61075,-16.7796 -18.55093,-25.1321 -8.59331,-9.0448 -19.02555,-17.43694 -31.37323,-25.02265 -13.06067,-8.02328 -27.59214,-14.70787 -43.59671,-20.34887 -1.49718,-0.5277 -2.99431,-1.04171 -4.49027,-1.54263 0,0 -1e-5,0 -1e-5,0 C 117.99023,949.50668 75.519825,945.02251 46.374112,942.7633 16.492546,940.44705 -1.9978486,940.17305 -2.0203051,938.57864 Z"
       id="path2672-3-7"
       inkscape:connector-curvature="0"
       inkscape:path-effect="#path-effect2674-6-5"
       inkscape:original-d="M -2.0203051,938.57864 C 284.86302,934.53803 272.74119,1080 272.74119,1080" />
    <path
       transform="translate(1011.2322,-0.28910352)"
       style="fill:#d00000;stroke:none;stroke-width:0.37799999;stroke-linecap:butt;stroke-linejoin:miter;stroke-miterlimit:4;stroke-dasharray:none;stroke-opacity:1;fill-opacity:0"
       d="m -2.0203051,938.57864 c -0.015553,-1.10423 18.4361631,-3.33379 48.7249461,-2.80415 29.674215,0.5189 72.844319,3.88581 116.802279,18.45049 0,1e-5 1e-5,1e-5 1e-5,1e-5 1.54921,0.51397 3.10034,1.04361 4.65232,1.58955 16.58336,5.83351 31.74581,12.99572 45.35552,21.66777 12.87913,8.20593 23.73008,17.45953 32.53954,27.41889 8.14,9.2074 14.16878,18.6653 18.46934,27.6914 4.24635,8.973 6.71203,17.2793 8.07854,24.2871 0.94721,14.8111 1.04422,23.0938 0.14109,23.1203 0,0 0,0 0,0 0,0 0,0 0,0 0,0 0,0 -1e-5,0 0,0 0,0 0,0 0,0 0,0 0,0 0,0 0,0 0,0 -0.002,0 -0.002,0 -0.002,0 2.1e-4,0 4.2e-4,0 -0.002,0 0,0 0,0 0,0 0,0 0,0 0,0 0,0 0,0 0,0 0,0 -10e-6,0 -10e-6,0 0,0 0,0 0,0 0,0 0,0 0,0 -0.90453,0 -2.69762,-8.228 -5.04282,-22.2381 -1.95877,-6.4714 -4.87003,-13.9855 -9.33878,-22.0074 -4.54729,-8.228 -10.61075,-16.7796 -18.55093,-25.1321 -8.59331,-9.0448 -19.02555,-17.43694 -31.37323,-25.02265 -13.06067,-8.02328 -27.59214,-14.70787 -43.59671,-20.34887 -1.49718,-0.5277 -2.99431,-1.04171 -4.49027,-1.54263 0,0 -1e-5,0 -1e-5,0 C 117.99023,949.50668 75.519825,945.02251 46.374112,942.7633 16.492546,940.44705 -1.9978486,940.17305 -2.0203051,938.57864 Z"
       id="path2672-78"
       inkscape:connector-curvature="0"
       inkscape:path-effect="#path-effect2674-4"
       inkscape:original-d="M -2.0203051,938.57864 C 284.86302,934.53803 272.74119,1080 272.74119,1080" />
    <path
       transform="matrix(-1,0,0,1,1556.4366,-0.28910352)"
       style="fill:#d00000;stroke:none;stroke-width:0.37799999;stroke-linecap:butt;stroke-linejoin:miter;stroke-miterlimit:4;stroke-dasharray:none;stroke-opacity:1;fill-opacity:0"
       d="m -2.0203051,938.57864 c -0.015553,-1.10423 18.4361631,-3.33379 48.7249461,-2.80415 29.674215,0.5189 72.844319,3.88581 116.802279,18.45049 0,1e-5 1e-5,1e-5 1e-5,1e-5 1.54921,0.51397 3.10034,1.04361 4.65232,1.58955 16.58336,5.83351 31.74581,12.99572 45.35552,21.66777 12.87913,8.20593 23.73008,17.45953 32.53954,27.41889 8.14,9.2074 14.16878,18.6653 18.46934,27.6914 4.24635,8.973 6.71203,17.2793 8.07854,24.2871 0.94721,14.8111 1.04422,23.0938 0.14109,23.1203 0,0 0,0 0,0 0,0 0,0 0,0 0,0 0,0 -1e-5,0 0,0 0,0 0,0 0,0 0,0 0,0 0,0 0,0 0,0 -0.002,0 -0.002,0 -0.002,0 2.1e-4,0 4.2e-4,0 -0.002,0 0,0 0,0 0,0 0,0 0,0 0,0 0,0 0,0 0,0 0,0 -10e-6,0 -10e-6,0 0,0 0,0 0,0 0,0 0,0 0,0 -0.90453,0 -2.69762,-8.228 -5.04282,-22.2381 -1.95877,-6.4714 -4.87003,-13.9855 -9.33878,-22.0074 -4.54729,-8.228 -10.61075,-16.7796 -18.55093,-25.1321 -8.59331,-9.0448 -19.02555,-17.43694 -31.37323,-25.02265 -13.06067,-8.02328 -27.59214,-14.70787 -43.59671,-20.34887 -1.49718,-0.5277 -2.99431,-1.04171 -4.49027,-1.54263 0,0 -1e-5,0 -1e-5,0 C 117.99023,949.50668 75.519825,945.02251 46.374112,942.7633 16.492546,940.44705 -1.9978486,940.17305 -2.0203051,938.57864 Z"
       id="path2672-3-4"
       inkscape:connector-curvature="0"
       inkscape:path-effect="#path-effect2674-6-7"
       inkscape:original-d="M -2.0203051,938.57864 C 284.86302,934.53803 272.74119,1080 272.74119,1080" />
    <path
       transform="translate(1514.4272,-0.86729352)"
       style="fill:#d00000;stroke:none;stroke-width:0.37799999;stroke-linecap:butt;stroke-linejoin:miter;stroke-miterlimit:4;stroke-dasharray:none;stroke-opacity:1;fill-opacity:0"
       d="m -2.0203051,938.57864 c -0.015553,-1.10423 18.4361631,-3.33379 48.7249461,-2.80415 29.674215,0.5189 72.844319,3.88581 116.802279,18.45049 0,1e-5 1e-5,1e-5 1e-5,1e-5 1.54921,0.51397 3.10034,1.04361 4.65232,1.58955 16.58336,5.83351 31.74581,12.99572 45.35552,21.66777 12.87913,8.20593 23.73008,17.45953 32.53954,27.41889 8.14,9.2074 14.16878,18.6653 18.46934,27.6914 4.24635,8.973 6.71203,17.2793 8.07854,24.2871 0.94721,14.8111 1.04422,23.0938 0.14109,23.1203 0,0 0,0 0,0 0,0 0,0 0,0 0,0 0,0 -1e-5,0 0,0 0,0 0,0 0,0 0,0 0,0 0,0 0,0 0,0 -0.002,0 -0.002,0 -0.002,0 2.1e-4,0 4.2e-4,0 -0.002,0 0,0 0,0 0,0 0,0 0,0 0,0 0,0 0,0 0,0 0,0 -10e-6,0 -10e-6,0 0,0 0,0 0,0 0,0 0,0 0,0 -0.90453,0 -2.69762,-8.228 -5.04282,-22.2381 -1.95877,-6.4714 -4.87003,-13.9855 -9.33878,-22.0074 -4.54729,-8.228 -10.61075,-16.7796 -18.55093,-25.1321 -8.59331,-9.0448 -19.02555,-17.43694 -31.37323,-25.02265 -13.06067,-8.02328 -27.59214,-14.70787 -43.59671,-20.34887 -1.49718,-0.5277 -2.99431,-1.04171 -4.49027,-1.54263 0,0 -1e-5,0 -1e-5,0 C 117.99023,949.50668 75.519825,945.02251 46.374112,942.7633 16.492546,940.44705 -1.9978486,940.17305 -2.0203051,938.57864 Z"
       id="path2672-7-6"
       inkscape:connector-curvature="0"
       inkscape:path-effect="#path-effect2674-62-5"
       inkscape:original-d="M -2.0203051,938.57864 C 284.86302,934.53803 272.74119,1080 272.74119,1080" />
    <path
       transform="matrix(-1,0,0,1,2059.6315,-0.86729352)"
       style="fill:#d00000;stroke:none;stroke-width:0.37799999;stroke-linecap:butt;stroke-linejoin:miter;stroke-miterlimit:4;stroke-dasharray:none;stroke-opacity:1;fill-opacity:0"
       d="m -2.0203051,938.57864 c -0.015553,-1.10423 18.4361631,-3.33379 48.7249461,-2.80415 29.674215,0.5189 72.844319,3.88581 116.802279,18.45049 0,1e-5 1e-5,1e-5 1e-5,1e-5 1.54921,0.51397 3.10034,1.04361 4.65232,1.58955 16.58336,5.83351 31.74581,12.99572 45.35552,21.66777 12.87913,8.20593 23.73008,17.45953 32.53954,27.41889 8.14,9.2074 14.16878,18.6653 18.46934,27.6914 4.24635,8.973 6.71203,17.2793 8.07854,24.2871 0.94721,14.8111 1.04422,23.0938 0.14109,23.1203 0,0 0,0 0,0 0,0 0,0 0,0 0,0 0,0 -1e-5,0 0,0 0,0 0,0 0,0 0,0 0,0 0,0 0,0 0,0 -0.002,0 -0.002,0 -0.002,0 2.1e-4,0 4.2e-4,0 -0.002,0 0,0 0,0 0,0 0,0 0,0 0,0 0,0 0,0 0,0 0,0 -10e-6,0 -10e-6,0 0,0 0,0 0,0 0,0 0,0 0,0 -0.90453,0 -2.69762,-8.228 -5.04282,-22.2381 -1.95877,-6.4714 -4.87003,-13.9855 -9.33878,-22.0074 -4.54729,-8.228 -10.61075,-16.7796 -18.55093,-25.1321 -8.59331,-9.0448 -19.02555,-17.43694 -31.37323,-25.02265 -13.06067,-8.02328 -27.59214,-14.70787 -43.59671,-20.34887 -1.49718,-0.5277 -2.99431,-1.04171 -4.49027,-1.54263 0,0 -1e-5,0 -1e-5,0 C 117.99023,949.50668 75.519825,945.02251 46.374112,942.7633 16.492546,940.44705 -1.9978486,940.17305 -2.0203051,938.57864 Z"
       id="path2672-3-7-3"
       inkscape:connector-curvature="0"
       inkscape:path-effect="#path-effect2674-6-5-9"
       inkscape:original-d="M -2.0203051,938.57864 C 284.86302,934.53803 272.74119,1080 272.74119,1080" />
    <path
       style="fill:#2838da;stroke:none;stroke-width:1px;stroke-linecap:butt;stroke-linejoin:miter;stroke-opacity:1;fill-opacity:0.99215686"
       d="m -2094.2857,920 c 0,0.17212 -1.9351,0.34169 -5.5943,0.47949 l -10e-5,10e-6 c -3e-4,0.001 -7e-4,0.002 -0,0.003 -0,0.003 -0,0.006 -0,0.01 -0,0.0124 -0.01,0.0249 -0.011,0.0375 h 0 l 0,0 0,0 c -0.1265,0.0754 -0.254,0.15214 -0.3853,0.23143 v 0 c -0.4508,0.27241 -0.9184,0.55913 -1.4208,0.87119 v 0 c -1.3765,0.85494 -2.9762,1.8762 -4.718,3.05438 v 0 c -1.7531,1.18606 -3.7801,2.61625 -5.8116,4.22887 l 0,0 c -1.6862,1.34044 -3.5477,2.91804 -5.1735,4.71639 l 0,0 c -1.1482,1.30111 -2.3484,2.74561 -2.7706,4.31769 l 0,0 c -0.148,0.55208 -0.2195,1.10775 -0.1033,1.56749 l 0,0 c 0.084,0.44652 0.364,0.89704 0.7368,1.28566 v 0 c 0.5061,0.53434 1.2349,0.93288 2.0668,1.30817 v 0 c 1.1588,0.50633 2.4391,0.83463 3.8266,1.11058 l 0,0 c 4.2367,0.83496 8.6112,0.93404 13.6485,0.87593 l 0,0 c 18.3301,-0.24106 27.8945,-0.39426 46.2245,-0.63532 l 0,0 c 1e-4,0 1e-4,0 1e-4,0 25.9922,-0.33272 57.1863,-0.6868 91.6615,-1.03742 l 0,0 c 69.777,-0.70965 157.2849,-1.45179 256.0137,-2.16672 h 0 c -1.1245,0.008 248.0401,-1.60786 246.9155,-1.59971 l 0,0 c -0.017,10e-5 80.3055,-0.45204 80.2886,-0.45194 l 0,0 c 7.4317,-0.0405 14.8968,-0.0808 22.3944,-0.12098 l 0,0 c 0.059,-3.2e-4 5.8314,-0.0312 5.8901,-0.0315 0,0 0,0 0,0 0.036,-2e-4 1.4734,-0.008 1.5095,-0.008 0,0 0,0 0,0 0.1282,-6.8e-4 0.2563,-0.001 0.3844,-0.002 0,0 0,0 0,0 0,0 0.096,-5.2e-4 0.096,-5.2e-4 0,0 0.024,-1.3e-4 0.024,-1.3e-4 -2.8386,0.0126 304.5556,-1.1588 301.7088,-1.14614 477.59897,-1.5195 885.22377,-1.46201 1042.8837609,-0.0638 28.0314641,0.93346 49.0185511,1.74317 59.7925261,2.31522 6.498317,0.33597 9.878787,0.61966 9.926078,0.84625 0,0 0,1e-5 0,1e-5 3.14e-4,0.005 2.21e-4,0.005 2.21e-4,0.005 0,0 1.01e-4,-1.9e-4 -3.19e-4,0.005 0,0 0,1e-5 0,1e-5 -0.05168,0.2248 -3.436652,0.38553 -9.951311,0.48501 -11.44434,0.15868 -31.121809,0.0976 -59.7987271,-0.16626 -157.6891389,2.40167 -565.2991589,5.05333 -1042.8444289,6.57319 -2.928,0.009 -298.7454,0.76457 -301.6735,0.77389 -0.01,3e-5 -0.032,1e-4 -0.032,1e-4 0,0 -0.096,2.7e-4 -0.096,2.7e-4 0,0 0,0 0,0 -0.1267,3.6e-4 -0.2534,7.2e-4 -0.3802,0.001 0,0 0,0 0,0 -0.019,5e-5 -1.4906,0.004 -1.5095,0.004 0,0 0,0 0,0 -0.043,1.2e-4 -5.8472,0.0162 -5.8902,0.0163 l 0,0 c -7.4977,0.0207 -14.963,0.0408 -22.3948,0.0604 l 0,0 c -0.297,7.9e-4 -79.9928,0.19464 -80.2898,0.19543 l 0,0 c -1.121,0.002 -245.8002,0.36207 -246.9212,0.36456 h 0 c -99.5552,0.0615 -185.4199,-0.005 -256.0244,-0.20249 l 0,0 c -34.9048,-0.0979 -65.2461,-0.2249 -91.6686,-0.39013 0,0 0,0 0,0 -18.313,-0.11453 -32.0054,-0.20273 -46.2385,-0.38979 -5.1025,-0.0581 -9.7157,-0.31419 -14.2361,-1.33261 l 0,0 c -1.4924,-0.33361 -2.9569,-0.77085 -4.3557,-1.4243 l 0,0 c -1.0134,-0.46148 -2.0078,-1.09423 -2.8443,-1.97974 -0.6667,-0.71068 -1.1395,-1.6086 -1.3295,-2.60474 -0.161,-1.001 -0.035,-1.95194 0.2487,-2.77487 l 0,0 c 0.751,-2.16246 2.1804,-3.82639 3.4821,-5.12083 l 0,0 c 1.8367,-1.86992 3.8419,-3.43243 5.6341,-4.72354 l 0,0 c 2.166,-1.56285 4.2923,-2.90703 6.139,-4.00829 1.8334,-1.09358 3.5094,-2.01682 4.9633,-2.77571 0.5282,-0.27572 1.0257,-0.52901 1.5026,-0.76488 0.1391,-0.0688 0.2754,-0.1356 0.4106,-0.201 l 0,0 0,-10e-6 0,0 c -0.034,0.0128 0.2309,-0.087 0.1969,-0.0741 -0,0.002 0.055,-0.0208 0.05,-0.019 0.01,-0.002 0.012,-0.004 0.018,-0.007 l 0,0 c 3.8981,0.13784 5.8343,0.30733 5.8343,0.47949 z"
       id="path2782"
       inkscape:connector-curvature="0"
       inkscape:path-effect="#path-effect2784"
       inkscape:original-d="M -2094.2857,920 H -2100 c 0,0 -48.5714,25.71429 0,25.71429 48.5714,0 751.4286,-2.85715 751.4286,-2.85715 L -4.0203051,938.57864 C 62.857143,940 65.714286,940 65.714286,940" />
    <path
       style="fill:#d00000;stroke:none;stroke-width:1px;stroke-linecap:butt;stroke-linejoin:miter;stroke-opacity:1;fill-opacity:0"
       d="m 2061.6518,937.71135 c 0,0 0,0 0,0 0,0 0,0 0,0 0,0 0,0 0,0 0,0 0,0 0,0 z"
       id="path2790"
       inkscape:connector-curvature="0"
       inkscape:path-effect="#path-effect2792"
       inkscape:original-d="M 2061.6518,937.71135 Z" />
    <path
       style="fill:#000000;stroke:none;stroke-width:1px;stroke-linecap:butt;stroke-linejoin:miter;stroke-opacity:1"
       d="m 3991.4286,997.14286 c -0.4723,-0.13994 7.0933,-27.18605 22.4433,-77.98561 0,10e-6 0,10e-6 0,10e-6 0.025,-0.008 0.05,-0.0162 0.075,-0.0243 -0.037,0.012 0.2532,-0.0819 0.216,-0.0698 -0.027,0.009 0.8678,-0.28092 0.8413,-0.27234 0.2064,0.0787 0.412,0.15802 0.6174,0.23777 0,0 0,1e-5 0,1e-5 0.7517,0.29197 1.504,0.59123 2.2598,0.89716 2.4575,0.99455 4.9554,2.05987 7.4808,3.2019 3.0385,1.37371 6.1647,2.87831 9.2691,4.55462 2.8279,1.52389 5.7595,3.23755 8.5089,5.31924 1.0978,0.82934 2.1973,1.75383 3.2109,2.82757 0,0 0,4e-5 0,4e-5 0.79,0.81869 1.5613,1.81404 2.1188,3.03998 0.4665,0.98849 0.6555,2.20894 0.3697,3.50528 -0.4098,1.37068 -1.2333,2.41278 -2.1746,3.09076 -1.3517,1.02438 -2.8316,1.66267 -4.2535,2.12149 0,0 0,2e-5 0,2e-5 -2.1483,0.71801 -4.3377,1.16928 -6.5306,1.51645 -7.033,1.12099 -14.1101,1.33974 -21.5954,1.37802 -0.018,1e-4 -25.1714,0.14094 -25.189,0.14105 -2.3465,-0.66494 -4.7138,-1.34843 -7.102,-2.05072 1.8206,-0.69156 3.6534,-1.39721 5.4982,-2.11709 0,-2e-5 12.0724,-0.0613 12.0759,-0.0613 5.7469,0.68392 11.6027,1.40965 17.5678,2.17837 -50.4778,-0.28033 -1791.7575,-9.95077 -1842.2353,-10.2311 -6.6462,-0.0369 -106.5973,-0.59201 -113.2434,-0.62892 554.0874,2.39344 984.9141,4.4133 1358.3477,7.352 367.4301,-0.86382 594.2735,-0.71548 594.2801,0.6509 0.01,1.36638 -226.8276,3.69585 -594.2913,6.36518 -373.4356,-3.03256 -804.2626,-7.90169 -1358.3487,-14.36816 -10.0864,-0.056 123.3321,0.68494 113.2457,0.62892 -167.6912,-0.93129 2009.949,11.16251 1842.2578,10.23122 -5.9696,0.76872 -11.8296,1.49445 -17.5804,2.17837 0,10e-6 -12.0795,-0.0613 -12.0759,-0.0613 -1.8448,-0.71988 -3.6776,-1.42553 -5.4982,-2.11709 2.3882,-0.70229 4.7555,-1.38578 7.102,-2.05072 -0.019,-1e-4 25.2079,0.14116 25.189,0.14105 7.4327,0.0383 14.3092,-0.0784 21.0544,-1.07635 2.0984,-0.3128 4.1012,-0.69044 5.9836,-1.30057 0,0 0,-1e-5 0,-1e-5 1.2613,-0.42532 2.4034,-0.86195 3.2567,-1.53229 0.5097,-0.43724 0.9372,-0.85173 0.9842,-1.23256 0.1323,-0.30669 0.014,-0.80367 -0.1704,-1.32025 -0.2821,-0.71487 -0.8376,-1.40878 -1.4678,-2.12042 0,0 0,-4e-5 0,-4e-5 -0.8164,-0.89838 -1.7703,-1.71595 -2.7695,-2.50036 -2.509,-1.9649 -5.2846,-3.63462 -8.0238,-5.17029 -2.9955,-1.67605 -6.037,-3.19659 -9.0094,-4.59758 -2.4698,-1.16381 -4.9155,-2.25351 -7.3236,-3.27453 -0.7407,-0.31404 -1.4757,-0.62067 -2.2083,-0.91939 0,0 -1e-4,-2e-5 -1e-4,-2e-5 -0.2001,-0.0816 -0.3992,-0.16226 -0.5977,-0.24183 -0.01,0.005 0.5305,-0.40064 0.5242,-0.39589 -0,0.002 0.1374,-0.10349 0.1346,-0.10138 0.015,-0.0117 0.031,-0.0235 0.047,-0.0352 1e-4,-4e-5 1e-4,-5e-5 1e-4,-5e-5 -14.4154,49.65819 -22.7985,76.44009 -23.2709,76.30011 z"
       id="path2794"
       inkscape:connector-curvature="0"
       inkscape:path-effect="#path-effect2796"
       inkscape:original-d="M 3991.4286,997.14286 4014.2857,920 c 0,0 74.2857,28.57143 0,28.57143 -74.2857,0 2.8572,0 2.8572,0 L 2061.6518,937.71135 3420,948.57143 l 594.2857,-2.85714" />
    <path
       style="fill:#000000;stroke:none;stroke-width:1px;stroke-linecap:butt;stroke-linejoin:miter;stroke-opacity:1"
       d="m 2061.6518,937.71135 c -0.01,-1.9829 88.0102,-3.92922 215.5323,-5.07352 49.9651,0.72946 105.9928,1.7251 165.1572,2.96407 210.1119,4.39998 380.5736,10.21002 380.5158,12.96953 -0.058,2.75951 -170.5953,1.4282 -380.643,-2.97097 -59.1515,-1.23885 -115.1629,-2.58958 -165.1124,-3.95257 -127.4319,-0.47162 -215.4447,-1.95372 -215.4499,-3.93654 z"
       id="path2798"
       inkscape:connector-curvature="0"
       inkscape:path-effect="#path-effect2800"
       inkscape:original-d="m 2061.6518,937.71135 215.4911,-0.56849 545.7142,11.42857" />
    <path
       style="opacity:0.37600002;fill:#2a3cd9;fill-opacity:0.50196078;fill-rule:nonzero;stroke-width:1.07999992;stroke-miterlimit:4;stroke-dasharray:none"
       d="M -1350.7039,1596.7485 V 948.17706 h 297.233 c 294.70103,0 297.38435,0.0513 315.00003,6.01776 21.56269,7.30338 48.31106,6.37195 68.0748,-2.37049 12.85609,-5.68686 19.06272,-5.8006 374.23969,-6.85787 340.88837,-1.01475 362.851198,-0.77954 391.166798,4.18906 39.511662,6.9332 85.591942,21.99831 108.232062,35.38451 34.56168,20.43497 60.08714,53.18577 64.8974,83.26757 1.03762,6.4889 2.90142,11.798 4.1418,11.798 1.24037,0 3.67725,-6.6307 5.41531,-14.7349 4.71846,-22.0014 16.47106,-41.1298 36.60637,-59.5802 42.49614,-38.93996 118.57603,-60.80778 212.13563,-60.97461 132.64649,-0.23652 232.69086,49.55812 244.67634,121.78161 2.61715,15.7709 5.85672,15.4758 9.35849,-0.8523 4.24443,-19.7911 12.67277,-35.301 28.37314,-52.2126 32.88792,-35.42515 85.16057,-56.49481 164.5422,-66.32244 43.01354,-5.32517 65.18734,-5.33904 110.21024,-0.0689 73.1828,8.56637 130.2941,29.85323 160.8961,59.97024 17.5099,17.2323 32.129,42.7859 35.0973,61.3484 2.3701,14.822 5.797,14.8829 8.2866,0.1473 5.285,-31.282 35.9341,-68.78128 71.4931,-87.47221 45.0004,-23.65357 105.1898,-35.99803 177.0665,-36.31517 56.4357,-0.24901 89.23,4.57288 135.7143,19.95473 61.3474,20.30016 98.1697,53.15245 108.822,97.08995 4.8674,20.0758 7.3665,20.8839 10.97,3.5466 13.0623,-62.8506 79.2037,-103.82207 191.6365,-118.70988 42.3983,-5.61418 209.9518,-5.7514 391.4286,-0.32056 60.5,1.81051 231.5,3.46001 380,3.66554 148.5,0.20554 278.6786,0.62442 289.2857,0.93086 l 19.2857,0.55717 v 647.14287 647.1428 H 856.43899 -1350.7039 Z"
       id="path2802"
       inkscape:connector-curvature="0" />
    <rect
       style="opacity:1;fill:url(#linearGradient2542-3-2);fill-opacity:1;fill-rule:nonzero;stroke-width:1.43302882"
       id="rect2494-7-2-2"
       width="1314.2856"
       height="185.71428"
       x="244.14595"
       y="1532.462"
       ry="92.85714"
       rx="0"
       transform="rotate(-31.824477)" />
    <path
       inkscape:connector-curvature="0"
       id="path2828"
       d="M -1350.7039,1596.7485 V 948.17706 h 297.233 c 294.70103,0 297.38435,0.0513 315.00003,6.01776 21.56269,7.30338 48.31106,6.37195 68.0748,-2.37049 12.85609,-5.68686 19.06272,-5.8006 374.23969,-6.85787 340.88837,-1.01475 362.851198,-0.77954 391.166798,4.18906 39.511662,6.9332 85.591942,21.99831 108.232062,35.38451 34.56168,20.43497 60.08714,53.18577 64.8974,83.26757 1.03762,6.4889 2.90142,11.798 4.1418,11.798 1.24037,0 3.67725,-6.6307 5.41531,-14.7349 4.71846,-22.0014 16.47106,-41.1298 36.60637,-59.5802 42.49614,-38.93996 118.57603,-60.80778 212.13563,-60.97461 132.64649,-0.23652 232.69086,49.55812 244.67634,121.78161 2.61715,15.7709 5.85672,15.4758 9.35849,-0.8523 4.24443,-19.7911 12.67277,-35.301 28.37314,-52.2126 32.88792,-35.42515 85.16057,-56.49481 164.5422,-66.32244 43.01354,-5.32517 65.18734,-5.33904 110.21024,-0.0689 73.1828,8.56637 130.2941,29.85323 160.8961,59.97024 17.5099,17.2323 32.129,42.7859 35.0973,61.3484 2.3701,14.822 5.797,14.8829 8.2866,0.1473 5.285,-31.282 35.9341,-68.78128 71.4931,-87.47221 45.0004,-23.65357 105.1898,-35.99803 177.0665,-36.31517 56.4357,-0.24901 89.23,4.57288 135.7143,19.95473 61.3474,20.30016 98.1697,53.15245 108.822,97.08995 4.8674,20.0758 7.3665,20.8839 10.97,3.5466 13.0623,-62.8506 79.2037,-103.82207 191.6365,-118.70988 42.3983,-5.61418 209.9518,-5.7514 391.4286,-0.32056 60.5,1.81051 231.5,3.46001 380,3.66554 148.5,0.20554 278.6786,0.62442 289.2857,0.93086 l 19.2857,0.55717 v 647.14287 647.1428 H 856.43899 -1350.7039 Z"
       style="opacity:0.37600002;fill:#2a3cd9;fill-opacity:0.50196078;fill-rule:nonzero;stroke-width:1.07999992;stroke-miterlimit:4;stroke-dasharray:none" />
    <path
       style="opacity:0.37600002;fill:#2a3cd9;fill-opacity:0.50196078;fill-rule:nonzero;stroke-width:1.07999992;stroke-miterlimit:4;stroke-dasharray:none"
       d="M -1350.7039,1596.7485 V 948.17706 h 297.233 c 294.70103,0 297.38435,0.0513 315.00003,6.01776 21.56269,7.30338 48.31106,6.37195 68.0748,-2.37049 12.85609,-5.68686 19.06272,-5.8006 374.23969,-6.85787 340.88837,-1.01475 362.851198,-0.77954 391.166798,4.18906 39.511662,6.9332 85.591942,21.99831 108.232062,35.38451 34.56168,20.43497 60.08714,53.18577 64.8974,83.26757 1.03762,6.4889 2.90142,11.798 4.1418,11.798 1.24037,0 3.67725,-6.6307 5.41531,-14.7349 4.71846,-22.0014 16.47106,-41.1298 36.60637,-59.5802 42.49614,-38.93996 118.57603,-60.80778 212.13563,-60.97461 132.64649,-0.23652 232.69086,49.55812 244.67634,121.78161 2.61715,15.7709 5.85672,15.4758 9.35849,-0.8523 4.24443,-19.7911 12.67277,-35.301 28.37314,-52.2126 32.88792,-35.42515 85.16057,-56.49481 164.5422,-66.32244 43.01354,-5.32517 65.18734,-5.33904 110.21024,-0.0689 73.1828,8.56637 130.2941,29.85323 160.8961,59.97024 17.5099,17.2323 32.129,42.7859 35.0973,61.3484 2.3701,14.822 5.797,14.8829 8.2866,0.1473 5.285,-31.282 35.9341,-68.78128 71.4931,-87.47221 45.0004,-23.65357 105.1898,-35.99803 177.0665,-36.31517 56.4357,-0.24901 89.23,4.57288 135.7143,19.95473 61.3474,20.30016 98.1697,53.15245 108.822,97.08995 4.8674,20.0758 7.3665,20.8839 10.97,3.5466 13.0623,-62.8506 79.2037,-103.82207 191.6365,-118.70988 42.3983,-5.61418 209.9518,-5.7514 391.4286,-0.32056 60.5,1.81051 231.5,3.46001 380,3.66554 148.5,0.20554 278.6786,0.62442 289.2857,0.93086 l 19.2857,0.55717 v 647.14287 647.1428 H 856.43899 -1350.7039 Z"
       id="path2830"
       inkscape:connector-curvature="0" />
    <path
       inkscape:connector-curvature="0"
       id="path2832"
       d="M -1350.7039,1596.7485 V 948.17706 h 297.233 c 294.70103,0 297.38435,0.0513 315.00003,6.01776 21.56269,7.30338 48.31106,6.37195 68.0748,-2.37049 12.85609,-5.68686 19.06272,-5.8006 374.23969,-6.85787 340.88837,-1.01475 362.851198,-0.77954 391.166798,4.18906 39.511662,6.9332 85.591942,21.99831 108.232062,35.38451 34.56168,20.43497 60.08714,53.18577 64.8974,83.26757 1.03762,6.4889 2.90142,11.798 4.1418,11.798 1.24037,0 3.67725,-6.6307 5.41531,-14.7349 4.71846,-22.0014 16.47106,-41.1298 36.60637,-59.5802 42.49614,-38.93996 118.57603,-60.80778 212.13563,-60.97461 132.64649,-0.23652 232.69086,49.55812 244.67634,121.78161 2.61715,15.7709 5.85672,15.4758 9.35849,-0.8523 4.24443,-19.7911 12.67277,-35.301 28.37314,-52.2126 32.88792,-35.42515 85.16057,-56.49481 164.5422,-66.32244 43.01354,-5.32517 65.18734,-5.33904 110.21024,-0.0689 73.1828,8.56637 130.2941,29.85323 160.8961,59.97024 17.5099,17.2323 32.129,42.7859 35.0973,61.3484 2.3701,14.822 5.797,14.8829 8.2866,0.1473 5.285,-31.282 35.9341,-68.78128 71.4931,-87.47221 45.0004,-23.65357 105.1898,-35.99803 177.0665,-36.31517 56.4357,-0.24901 89.23,4.57288 135.7143,19.95473 61.3474,20.30016 98.1697,53.15245 108.822,97.08995 4.8674,20.0758 7.3665,20.8839 10.97,3.5466 13.0623,-62.8506 79.2037,-103.82207 191.6365,-118.70988 42.3983,-5.61418 209.9518,-5.7514 391.4286,-0.32056 60.5,1.81051 231.5,3.46001 380,3.66554 148.5,0.20554 278.6786,0.62442 289.2857,0.93086 l 19.2857,0.55717 v 647.14287 647.1428 H 856.43899 -1350.7039 Z"
       style="opacity:0.37600002;fill:#2a3cd9;fill-opacity:0.50196078;fill-rule:nonzero;stroke-width:1.07999992;stroke-miterlimit:4;stroke-dasharray:none" />
    <path
       style="opacity:0.37600002;fill:#2a3cd9;fill-opacity:0.50196078;fill-rule:nonzero;stroke-width:1.07999992;stroke-miterlimit:4;stroke-dasharray:none"
       d="M -1350.7039,1596.7485 V 948.17706 h 297.233 c 294.70103,0 297.38435,0.0513 315.00003,6.01776 21.56269,7.30338 48.31106,6.37195 68.0748,-2.37049 12.85609,-5.68686 19.06272,-5.8006 374.23969,-6.85787 340.88837,-1.01475 362.851198,-0.77954 391.166798,4.18906 39.511662,6.9332 85.591942,21.99831 108.232062,35.38451 34.56168,20.43497 60.08714,53.18577 64.8974,83.26757 1.03762,6.4889 2.90142,11.798 4.1418,11.798 1.24037,0 3.67725,-6.6307 5.41531,-14.7349 4.71846,-22.0014 16.47106,-41.1298 36.60637,-59.5802 42.49614,-38.93996 118.57603,-60.80778 212.13563,-60.97461 132.64649,-0.23652 232.69086,49.55812 244.67634,121.78161 2.61715,15.7709 5.85672,15.4758 9.35849,-0.8523 4.24443,-19.7911 12.67277,-35.301 28.37314,-52.2126 32.88792,-35.42515 85.16057,-56.49481 164.5422,-66.32244 43.01354,-5.32517 65.18734,-5.33904 110.21024,-0.0689 73.1828,8.56637 130.2941,29.85323 160.8961,59.97024 17.5099,17.2323 32.129,42.7859 35.0973,61.3484 2.3701,14.822 5.797,14.8829 8.2866,0.1473 5.285,-31.282 35.9341,-68.78128 71.4931,-87.47221 45.0004,-23.65357 105.1898,-35.99803 177.0665,-36.31517 56.4357,-0.24901 89.23,4.57288 135.7143,19.95473 61.3474,20.30016 98.1697,53.15245 108.822,97.08995 4.8674,20.0758 7.3665,20.8839 10.97,3.5466 13.0623,-62.8506 79.2037,-103.82207 191.6365,-118.70988 42.3983,-5.61418 209.9518,-5.7514 391.4286,-0.32056 60.5,1.81051 231.5,3.46001 380,3.66554 148.5,0.20554 278.6786,0.62442 289.2857,0.93086 l 19.2857,0.55717 v 647.14287 647.1428 H 856.43899 -1350.7039 Z"
       id="path2834"
       inkscape:connector-curvature="0" />
    <path
       inkscape:connector-curvature="0"
       id="path2836"
       d="M -1350.7039,1596.7485 V 948.17706 h 297.233 c 294.70103,0 297.38435,0.0513 315.00003,6.01776 21.56269,7.30338 48.31106,6.37195 68.0748,-2.37049 12.85609,-5.68686 19.06272,-5.8006 374.23969,-6.85787 340.88837,-1.01475 362.851198,-0.77954 391.166798,4.18906 39.511662,6.9332 85.591942,21.99831 108.232062,35.38451 34.56168,20.43497 60.08714,53.18577 64.8974,83.26757 1.03762,6.4889 2.90142,11.798 4.1418,11.798 1.24037,0 3.67725,-6.6307 5.41531,-14.7349 4.71846,-22.0014 16.47106,-41.1298 36.60637,-59.5802 42.49614,-38.93996 118.57603,-60.80778 212.13563,-60.97461 132.64649,-0.23652 232.69086,49.55812 244.67634,121.78161 2.61715,15.7709 5.85672,15.4758 9.35849,-0.8523 4.24443,-19.7911 12.67277,-35.301 28.37314,-52.2126 32.88792,-35.42515 85.16057,-56.49481 164.5422,-66.32244 43.01354,-5.32517 65.18734,-5.33904 110.21024,-0.0689 73.1828,8.56637 130.2941,29.85323 160.8961,59.97024 17.5099,17.2323 32.129,42.7859 35.0973,61.3484 2.3701,14.822 5.797,14.8829 8.2866,0.1473 5.285,-31.282 35.9341,-68.78128 71.4931,-87.47221 45.0004,-23.65357 105.1898,-35.99803 177.0665,-36.31517 56.4357,-0.24901 89.23,4.57288 135.7143,19.95473 61.3474,20.30016 98.1697,53.15245 108.822,97.08995 4.8674,20.0758 7.3665,20.8839 10.97,3.5466 13.0623,-62.8506 79.2037,-103.82207 191.6365,-118.70988 42.3983,-5.61418 209.9518,-5.7514 391.4286,-0.32056 60.5,1.81051 231.5,3.46001 380,3.66554 148.5,0.20554 278.6786,0.62442 289.2857,0.93086 l 19.2857,0.55717 v 647.14287 647.1428 H 856.43899 -1350.7039 Z"
       style="opacity:0.37600002;fill:#2a3cd9;fill-opacity:0.50196078;fill-rule:nonzero;stroke-width:1.07999992;stroke-miterlimit:4;stroke-dasharray:none" />
    <path
       style="opacity:0.37600002;fill:#2a3cd9;fill-opacity:0.50196078;fill-rule:nonzero;stroke-width:1.07999992;stroke-miterlimit:4;stroke-dasharray:none"
       d="M -1350.7039,1596.7485 V 948.17706 h 297.233 c 294.70103,0 297.38435,0.0513 315.00003,6.01776 21.56269,7.30338 48.31106,6.37195 68.0748,-2.37049 12.85609,-5.68686 19.06272,-5.8006 374.23969,-6.85787 340.88837,-1.01475 362.851198,-0.77954 391.166798,4.18906 39.511662,6.9332 85.591942,21.99831 108.232062,35.38451 34.56168,20.43497 60.08714,53.18577 64.8974,83.26757 1.03762,6.4889 2.90142,11.798 4.1418,11.798 1.24037,0 3.67725,-6.6307 5.41531,-14.7349 4.71846,-22.0014 16.47106,-41.1298 36.60637,-59.5802 42.49614,-38.93996 118.57603,-60.80778 212.13563,-60.97461 132.64649,-0.23652 232.69086,49.55812 244.67634,121.78161 2.61715,15.7709 5.85672,15.4758 9.35849,-0.8523 4.24443,-19.7911 12.67277,-35.301 28.37314,-52.2126 32.88792,-35.42515 85.16057,-56.49481 164.5422,-66.32244 43.01354,-5.32517 65.18734,-5.33904 110.21024,-0.0689 73.1828,8.56637 130.2941,29.85323 160.8961,59.97024 17.5099,17.2323 32.129,42.7859 35.0973,61.3484 2.3701,14.822 5.797,14.8829 8.2866,0.1473 5.285,-31.282 35.9341,-68.78128 71.4931,-87.47221 45.0004,-23.65357 105.1898,-35.99803 177.0665,-36.31517 56.4357,-0.24901 89.23,4.57288 135.7143,19.95473 61.3474,20.30016 98.1697,53.15245 108.822,97.08995 4.8674,20.0758 7.3665,20.8839 10.97,3.5466 13.0623,-62.8506 79.2037,-103.82207 191.6365,-118.70988 42.3983,-5.61418 209.9518,-5.7514 391.4286,-0.32056 60.5,1.81051 231.5,3.46001 380,3.66554 148.5,0.20554 278.6786,0.62442 289.2857,0.93086 l 19.2857,0.55717 v 647.14287 647.1428 H 856.43899 -1350.7039 Z"
       id="path2838"
       inkscape:connector-curvature="0" />
    <path
       inkscape:connector-curvature="0"
       id="path2840"
       d="M -1350.7039,1596.7485 V 948.17706 h 297.233 c 294.70103,0 297.38435,0.0513 315.00003,6.01776 21.56269,7.30338 48.31106,6.37195 68.0748,-2.37049 12.85609,-5.68686 19.06272,-5.8006 374.23969,-6.85787 340.88837,-1.01475 362.851198,-0.77954 391.166798,4.18906 39.511662,6.9332 85.591942,21.99831 108.232062,35.38451 34.56168,20.43497 60.08714,53.18577 64.8974,83.26757 1.03762,6.4889 2.90142,11.798 4.1418,11.798 1.24037,0 3.67725,-6.6307 5.41531,-14.7349 4.71846,-22.0014 16.47106,-41.1298 36.60637,-59.5802 42.49614,-38.93996 118.57603,-60.80778 212.13563,-60.97461 132.64649,-0.23652 232.69086,49.55812 244.67634,121.78161 2.61715,15.7709 5.85672,15.4758 9.35849,-0.8523 4.24443,-19.7911 12.67277,-35.301 28.37314,-52.2126 32.88792,-35.42515 85.16057,-56.49481 164.5422,-66.32244 43.01354,-5.32517 65.18734,-5.33904 110.21024,-0.0689 73.1828,8.56637 130.2941,29.85323 160.8961,59.97024 17.5099,17.2323 32.129,42.7859 35.0973,61.3484 2.3701,14.822 5.797,14.8829 8.2866,0.1473 5.285,-31.282 35.9341,-68.78128 71.4931,-87.47221 45.0004,-23.65357 105.1898,-35.99803 177.0665,-36.31517 56.4357,-0.24901 89.23,4.57288 135.7143,19.95473 61.3474,20.30016 98.1697,53.15245 108.822,97.08995 4.8674,20.0758 7.3665,20.8839 10.97,3.5466 13.0623,-62.8506 79.2037,-103.82207 191.6365,-118.70988 42.3983,-5.61418 209.9518,-5.7514 391.4286,-0.32056 60.5,1.81051 231.5,3.46001 380,3.66554 148.5,0.20554 278.6786,0.62442 289.2857,0.93086 l 19.2857,0.55717 v 647.14287 647.1428 H 856.43899 -1350.7039 Z"
       style="opacity:0.37600002;fill:#2a3cd9;fill-opacity:0.50196078;fill-rule:nonzero;stroke-width:1.07999992;stroke-miterlimit:4;stroke-dasharray:none" />
    <path
       style="opacity:0.37600002;fill:#2a3cd9;fill-opacity:0.50196078;fill-rule:nonzero;stroke-width:1.07999992;stroke-miterlimit:4;stroke-dasharray:none"
       d="M -1350.7039,1596.7485 V 948.17706 h 297.233 c 294.70103,0 297.38435,0.0513 315.00003,6.01776 21.56269,7.30338 48.31106,6.37195 68.0748,-2.37049 12.85609,-5.68686 19.06272,-5.8006 374.23969,-6.85787 340.88837,-1.01475 362.851198,-0.77954 391.166798,4.18906 39.511662,6.9332 85.591942,21.99831 108.232062,35.38451 34.56168,20.43497 60.08714,53.18577 64.8974,83.26757 1.03762,6.4889 2.90142,11.798 4.1418,11.798 1.24037,0 3.67725,-6.6307 5.41531,-14.7349 4.71846,-22.0014 16.47106,-41.1298 36.60637,-59.5802 42.49614,-38.93996 118.57603,-60.80778 212.13563,-60.97461 132.64649,-0.23652 232.69086,49.55812 244.67634,121.78161 2.61715,15.7709 5.85672,15.4758 9.35849,-0.8523 4.24443,-19.7911 12.67277,-35.301 28.37314,-52.2126 32.88792,-35.42515 85.16057,-56.49481 164.5422,-66.32244 43.01354,-5.32517 65.18734,-5.33904 110.21024,-0.0689 73.1828,8.56637 130.2941,29.85323 160.8961,59.97024 17.5099,17.2323 32.129,42.7859 35.0973,61.3484 2.3701,14.822 5.797,14.8829 8.2866,0.1473 5.285,-31.282 35.9341,-68.78128 71.4931,-87.47221 45.0004,-23.65357 105.1898,-35.99803 177.0665,-36.31517 56.4357,-0.24901 89.23,4.57288 135.7143,19.95473 61.3474,20.30016 98.1697,53.15245 108.822,97.08995 4.8674,20.0758 7.3665,20.8839 10.97,3.5466 13.0623,-62.8506 79.2037,-103.82207 191.6365,-118.70988 42.3983,-5.61418 209.9518,-5.7514 391.4286,-0.32056 60.5,1.81051 231.5,3.46001 380,3.66554 148.5,0.20554 278.6786,0.62442 289.2857,0.93086 l 19.2857,0.55717 v 647.14287 647.1428 H 856.43899 -1350.7039 Z"
       id="path2842"
       inkscape:connector-curvature="0" />
    <path
       inkscape:connector-curvature="0"
       id="path2844"
       d="M -1350.7039,1596.7485 V 948.17706 h 297.233 c 294.70103,0 297.38435,0.0513 315.00003,6.01776 21.56269,7.30338 48.31106,6.37195 68.0748,-2.37049 12.85609,-5.68686 19.06272,-5.8006 374.23969,-6.85787 340.88837,-1.01475 362.851198,-0.77954 391.166798,4.18906 39.511662,6.9332 85.591942,21.99831 108.232062,35.38451 34.56168,20.43497 60.08714,53.18577 64.8974,83.26757 1.03762,6.4889 2.90142,11.798 4.1418,11.798 1.24037,0 3.67725,-6.6307 5.41531,-14.7349 4.71846,-22.0014 16.47106,-41.1298 36.60637,-59.5802 42.49614,-38.93996 118.57603,-60.80778 212.13563,-60.97461 132.64649,-0.23652 232.69086,49.55812 244.67634,121.78161 2.61715,15.7709 5.85672,15.4758 9.35849,-0.8523 4.24443,-19.7911 12.67277,-35.301 28.37314,-52.2126 32.88792,-35.42515 85.16057,-56.49481 164.5422,-66.32244 43.01354,-5.32517 65.18734,-5.33904 110.21024,-0.0689 73.1828,8.56637 130.2941,29.85323 160.8961,59.97024 17.5099,17.2323 32.129,42.7859 35.0973,61.3484 2.3701,14.822 5.797,14.8829 8.2866,0.1473 5.285,-31.282 35.9341,-68.78128 71.4931,-87.47221 45.0004,-23.65357 105.1898,-35.99803 177.0665,-36.31517 56.4357,-0.24901 89.23,4.57288 135.7143,19.95473 61.3474,20.30016 98.1697,53.15245 108.822,97.08995 4.8674,20.0758 7.3665,20.8839 10.97,3.5466 13.0623,-62.8506 79.2037,-103.82207 191.6365,-118.70988 42.3983,-5.61418 209.9518,-5.7514 391.4286,-0.32056 60.5,1.81051 231.5,3.46001 380,3.66554 148.5,0.20554 278.6786,0.62442 289.2857,0.93086 l 19.2857,0.55717 v 647.14287 647.1428 H 856.43899 -1350.7039 Z"
       style="opacity:0.37600002;fill:#2a3cd9;fill-opacity:0.50196078;fill-rule:nonzero;stroke-width:1.07999992;stroke-miterlimit:4;stroke-dasharray:none" />
    <path
       style="opacity:0.37600002;fill:#2a3cd9;fill-opacity:0.50196078;fill-rule:nonzero;stroke-width:1.07999992;stroke-miterlimit:4;stroke-dasharray:none"
       d="M -1350.7039,1596.7485 V 948.17706 h 297.233 c 294.70103,0 297.38435,0.0513 315.00003,6.01776 21.56269,7.30338 48.31106,6.37195 68.0748,-2.37049 12.85609,-5.68686 19.06272,-5.8006 374.23969,-6.85787 340.88837,-1.01475 362.851198,-0.77954 391.166798,4.18906 39.511662,6.9332 85.591942,21.99831 108.232062,35.38451 34.56168,20.43497 60.08714,53.18577 64.8974,83.26757 1.03762,6.4889 2.90142,11.798 4.1418,11.798 1.24037,0 3.67725,-6.6307 5.41531,-14.7349 4.71846,-22.0014 16.47106,-41.1298 36.60637,-59.5802 42.49614,-38.93996 118.57603,-60.80778 212.13563,-60.97461 132.64649,-0.23652 232.69086,49.55812 244.67634,121.78161 2.61715,15.7709 5.85672,15.4758 9.35849,-0.8523 4.24443,-19.7911 12.67277,-35.301 28.37314,-52.2126 32.88792,-35.42515 85.16057,-56.49481 164.5422,-66.32244 43.01354,-5.32517 65.18734,-5.33904 110.21024,-0.0689 73.1828,8.56637 130.2941,29.85323 160.8961,59.97024 17.5099,17.2323 32.129,42.7859 35.0973,61.3484 2.3701,14.822 5.797,14.8829 8.2866,0.1473 5.285,-31.282 35.9341,-68.78128 71.4931,-87.47221 45.0004,-23.65357 105.1898,-35.99803 177.0665,-36.31517 56.4357,-0.24901 89.23,4.57288 135.7143,19.95473 61.3474,20.30016 98.1697,53.15245 108.822,97.08995 4.8674,20.0758 7.3665,20.8839 10.97,3.5466 13.0623,-62.8506 79.2037,-103.82207 191.6365,-118.70988 42.3983,-5.61418 209.9518,-5.7514 391.4286,-0.32056 60.5,1.81051 231.5,3.46001 380,3.66554 148.5,0.20554 278.6786,0.62442 289.2857,0.93086 l 19.2857,0.55717 v 647.14287 647.1428 H 856.43899 -1350.7039 Z"
       id="path2846"
       inkscape:connector-curvature="0" />
    <path
       inkscape:connector-curvature="0"
       id="path2848"
       d="M -1350.7039,1596.7485 V 948.17706 h 297.233 c 294.70103,0 297.38435,0.0513 315.00003,6.01776 21.56269,7.30338 48.31106,6.37195 68.0748,-2.37049 12.85609,-5.68686 19.06272,-5.8006 374.23969,-6.85787 340.88837,-1.01475 362.851198,-0.77954 391.166798,4.18906 39.511662,6.9332 85.591942,21.99831 108.232062,35.38451 34.56168,20.43497 60.08714,53.18577 64.8974,83.26757 1.03762,6.4889 2.90142,11.798 4.1418,11.798 1.24037,0 3.67725,-6.6307 5.41531,-14.7349 4.71846,-22.0014 16.47106,-41.1298 36.60637,-59.5802 42.49614,-38.93996 118.57603,-60.80778 212.13563,-60.97461 132.64649,-0.23652 232.69086,49.55812 244.67634,121.78161 2.61715,15.7709 5.85672,15.4758 9.35849,-0.8523 4.24443,-19.7911 12.67277,-35.301 28.37314,-52.2126 32.88792,-35.42515 85.16057,-56.49481 164.5422,-66.32244 43.01354,-5.32517 65.18734,-5.33904 110.21024,-0.0689 73.1828,8.56637 130.2941,29.85323 160.8961,59.97024 17.5099,17.2323 32.129,42.7859 35.0973,61.3484 2.3701,14.822 5.797,14.8829 8.2866,0.1473 5.285,-31.282 35.9341,-68.78128 71.4931,-87.47221 45.0004,-23.65357 105.1898,-35.99803 177.0665,-36.31517 56.4357,-0.24901 89.23,4.57288 135.7143,19.95473 61.3474,20.30016 98.1697,53.15245 108.822,97.08995 4.8674,20.0758 7.3665,20.8839 10.97,3.5466 13.0623,-62.8506 79.2037,-103.82207 191.6365,-118.70988 42.3983,-5.61418 209.9518,-5.7514 391.4286,-0.32056 60.5,1.81051 231.5,3.46001 380,3.66554 148.5,0.20554 278.6786,0.62442 289.2857,0.93086 l 19.2857,0.55717 v 647.14287 647.1428 H 856.43899 -1350.7039 Z"
       style="opacity:0.37600002;fill:#2a3cd9;fill-opacity:0.50196078;fill-rule:nonzero;stroke-width:1.07999992;stroke-miterlimit:4;stroke-dasharray:none" />
    <path
       style="opacity:0.37600002;fill:#2a3cd9;fill-opacity:0.50196078;fill-rule:nonzero;stroke-width:1.07999992;stroke-miterlimit:4;stroke-dasharray:none"
       d="M -1350.7039,1596.7485 V 948.17706 h 297.233 c 294.70103,0 297.38435,0.0513 315.00003,6.01776 21.56269,7.30338 48.31106,6.37195 68.0748,-2.37049 12.85609,-5.68686 19.06272,-5.8006 374.23969,-6.85787 340.88837,-1.01475 362.851198,-0.77954 391.166798,4.18906 39.511662,6.9332 85.591942,21.99831 108.232062,35.38451 34.56168,20.43497 60.08714,53.18577 64.8974,83.26757 1.03762,6.4889 2.90142,11.798 4.1418,11.798 1.24037,0 3.67725,-6.6307 5.41531,-14.7349 4.71846,-22.0014 16.47106,-41.1298 36.60637,-59.5802 42.49614,-38.93996 118.57603,-60.80778 212.13563,-60.97461 132.64649,-0.23652 232.69086,49.55812 244.67634,121.78161 2.61715,15.7709 5.85672,15.4758 9.35849,-0.8523 4.24443,-19.7911 12.67277,-35.301 28.37314,-52.2126 32.88792,-35.42515 85.16057,-56.49481 164.5422,-66.32244 43.01354,-5.32517 65.18734,-5.33904 110.21024,-0.0689 73.1828,8.56637 130.2941,29.85323 160.8961,59.97024 17.5099,17.2323 32.129,42.7859 35.0973,61.3484 2.3701,14.822 5.797,14.8829 8.2866,0.1473 5.285,-31.282 35.9341,-68.78128 71.4931,-87.47221 45.0004,-23.65357 105.1898,-35.99803 177.0665,-36.31517 56.4357,-0.24901 89.23,4.57288 135.7143,19.95473 61.3474,20.30016 98.1697,53.15245 108.822,97.08995 4.8674,20.0758 7.3665,20.8839 10.97,3.5466 13.0623,-62.8506 79.2037,-103.82207 191.6365,-118.70988 42.3983,-5.61418 209.9518,-5.7514 391.4286,-0.32056 60.5,1.81051 231.5,3.46001 380,3.66554 148.5,0.20554 278.6786,0.62442 289.2857,0.93086 l 19.2857,0.55717 v 647.14287 647.1428 H 856.43899 -1350.7039 Z"
       id="path2850"
       inkscape:connector-curvature="0" />
    <path
       inkscape:connector-curvature="0"
       id="path2852"
       d="M -1350.7039,1596.7485 V 948.17706 h 297.233 c 294.70103,0 297.38435,0.0513 315.00003,6.01776 21.56269,7.30338 48.31106,6.37195 68.0748,-2.37049 12.85609,-5.68686 19.06272,-5.8006 374.23969,-6.85787 340.88837,-1.01475 362.851198,-0.77954 391.166798,4.18906 39.511662,6.9332 85.591942,21.99831 108.232062,35.38451 34.56168,20.43497 60.08714,53.18577 64.8974,83.26757 1.03762,6.4889 2.90142,11.798 4.1418,11.798 1.24037,0 3.67725,-6.6307 5.41531,-14.7349 4.71846,-22.0014 16.47106,-41.1298 36.60637,-59.5802 42.49614,-38.93996 118.57603,-60.80778 212.13563,-60.97461 132.64649,-0.23652 232.69086,49.55812 244.67634,121.78161 2.61715,15.7709 5.85672,15.4758 9.35849,-0.8523 4.24443,-19.7911 12.67277,-35.301 28.37314,-52.2126 32.88792,-35.42515 85.16057,-56.49481 164.5422,-66.32244 43.01354,-5.32517 65.18734,-5.33904 110.21024,-0.0689 73.1828,8.56637 130.2941,29.85323 160.8961,59.97024 17.5099,17.2323 32.129,42.7859 35.0973,61.3484 2.3701,14.822 5.797,14.8829 8.2866,0.1473 5.285,-31.282 35.9341,-68.78128 71.4931,-87.47221 45.0004,-23.65357 105.1898,-35.99803 177.0665,-36.31517 56.4357,-0.24901 89.23,4.57288 135.7143,19.95473 61.3474,20.30016 98.1697,53.15245 108.822,97.08995 4.8674,20.0758 7.3665,20.8839 10.97,3.5466 13.0623,-62.8506 79.2037,-103.82207 191.6365,-118.70988 42.3983,-5.61418 209.9518,-5.7514 391.4286,-0.32056 60.5,1.81051 231.5,3.46001 380,3.66554 148.5,0.20554 278.6786,0.62442 289.2857,0.93086 l 19.2857,0.55717 v 647.14287 647.1428 H 856.43899 -1350.7039 Z"
       style="opacity:0.37600002;fill:#2a3cd9;fill-opacity:0.50196078;fill-rule:nonzero;stroke-width:1.07999992;stroke-miterlimit:4;stroke-dasharray:none" />
    <path
       style="opacity:0.37600002;fill:#2a3cd9;fill-opacity:0.50196078;fill-rule:nonzero;stroke-width:1.07999992;stroke-miterlimit:4;stroke-dasharray:none"
       d="M -1350.7039,1596.7485 V 948.17706 h 297.233 c 294.70103,0 297.38435,0.0513 315.00003,6.01776 21.56269,7.30338 48.31106,6.37195 68.0748,-2.37049 12.85609,-5.68686 19.06272,-5.8006 374.23969,-6.85787 340.88837,-1.01475 362.851198,-0.77954 391.166798,4.18906 39.511662,6.9332 85.591942,21.99831 108.232062,35.38451 34.56168,20.43497 60.08714,53.18577 64.8974,83.26757 1.03762,6.4889 2.90142,11.798 4.1418,11.798 1.24037,0 3.67725,-6.6307 5.41531,-14.7349 4.71846,-22.0014 16.47106,-41.1298 36.60637,-59.5802 42.49614,-38.93996 118.57603,-60.80778 212.13563,-60.97461 132.64649,-0.23652 232.69086,49.55812 244.67634,121.78161 2.61715,15.7709 5.85672,15.4758 9.35849,-0.8523 4.24443,-19.7911 12.67277,-35.301 28.37314,-52.2126 32.88792,-35.42515 85.16057,-56.49481 164.5422,-66.32244 43.01354,-5.32517 65.18734,-5.33904 110.21024,-0.0689 73.1828,8.56637 130.2941,29.85323 160.8961,59.97024 17.5099,17.2323 32.129,42.7859 35.0973,61.3484 2.3701,14.822 5.797,14.8829 8.2866,0.1473 5.285,-31.282 35.9341,-68.78128 71.4931,-87.47221 45.0004,-23.65357 105.1898,-35.99803 177.0665,-36.31517 56.4357,-0.24901 89.23,4.57288 135.7143,19.95473 61.3474,20.30016 98.1697,53.15245 108.822,97.08995 4.8674,20.0758 7.3665,20.8839 10.97,3.5466 13.0623,-62.8506 79.2037,-103.82207 191.6365,-118.70988 42.3983,-5.61418 209.9518,-5.7514 391.4286,-0.32056 60.5,1.81051 231.5,3.46001 380,3.66554 148.5,0.20554 278.6786,0.62442 289.2857,0.93086 l 19.2857,0.55717 v 647.14287 647.1428 H 856.43899 -1350.7039 Z"
       id="path2854"
       inkscape:connector-curvature="0" />
    <path
       inkscape:connector-curvature="0"
       id="path2856"
       d="M -1350.7039,1596.7485 V 948.17706 h 297.233 c 294.70103,0 297.38435,0.0513 315.00003,6.01776 21.56269,7.30338 48.31106,6.37195 68.0748,-2.37049 12.85609,-5.68686 19.06272,-5.8006 374.23969,-6.85787 340.88837,-1.01475 362.851198,-0.77954 391.166798,4.18906 39.511662,6.9332 85.591942,21.99831 108.232062,35.38451 34.56168,20.43497 60.08714,53.18577 64.8974,83.26757 1.03762,6.4889 2.90142,11.798 4.1418,11.798 1.24037,0 3.67725,-6.6307 5.41531,-14.7349 4.71846,-22.0014 16.47106,-41.1298 36.60637,-59.5802 42.49614,-38.93996 118.57603,-60.80778 212.13563,-60.97461 132.64649,-0.23652 232.69086,49.55812 244.67634,121.78161 2.61715,15.7709 5.85672,15.4758 9.35849,-0.8523 4.24443,-19.7911 12.67277,-35.301 28.37314,-52.2126 32.88792,-35.42515 85.16057,-56.49481 164.5422,-66.32244 43.01354,-5.32517 65.18734,-5.33904 110.21024,-0.0689 73.1828,8.56637 130.2941,29.85323 160.8961,59.97024 17.5099,17.2323 32.129,42.7859 35.0973,61.3484 2.3701,14.822 5.797,14.8829 8.2866,0.1473 5.285,-31.282 35.9341,-68.78128 71.4931,-87.47221 45.0004,-23.65357 105.1898,-35.99803 177.0665,-36.31517 56.4357,-0.24901 89.23,4.57288 135.7143,19.95473 61.3474,20.30016 98.1697,53.15245 108.822,97.08995 4.8674,20.0758 7.3665,20.8839 10.97,3.5466 13.0623,-62.8506 79.2037,-103.82207 191.6365,-118.70988 42.3983,-5.61418 209.9518,-5.7514 391.4286,-0.32056 60.5,1.81051 231.5,3.46001 380,3.66554 148.5,0.20554 278.6786,0.62442 289.2857,0.93086 l 19.2857,0.55717 v 647.14287 647.1428 H 856.43899 -1350.7039 Z"
       style="opacity:0.37600002;fill:#2a3cd9;fill-opacity:0.50196078;fill-rule:nonzero;stroke-width:1.07999992;stroke-miterlimit:4;stroke-dasharray:none" />
    <path
       style="opacity:0.37600002;fill:#2a3cd9;fill-opacity:0.50196078;fill-rule:nonzero;stroke-width:1.07999992;stroke-miterlimit:4;stroke-dasharray:none"
       d="M -1350.7039,1596.7485 V 948.17706 h 297.233 c 294.70103,0 297.38435,0.0513 315.00003,6.01776 21.56269,7.30338 48.31106,6.37195 68.0748,-2.37049 12.85609,-5.68686 19.06272,-5.8006 374.23969,-6.85787 340.88837,-1.01475 362.851198,-0.77954 391.166798,4.18906 39.511662,6.9332 85.591942,21.99831 108.232062,35.38451 34.56168,20.43497 60.08714,53.18577 64.8974,83.26757 1.03762,6.4889 2.90142,11.798 4.1418,11.798 1.24037,0 3.67725,-6.6307 5.41531,-14.7349 4.71846,-22.0014 16.47106,-41.1298 36.60637,-59.5802 42.49614,-38.93996 118.57603,-60.80778 212.13563,-60.97461 132.64649,-0.23652 232.69086,49.55812 244.67634,121.78161 2.61715,15.7709 5.85672,15.4758 9.35849,-0.8523 4.24443,-19.7911 12.67277,-35.301 28.37314,-52.2126 32.88792,-35.42515 85.16057,-56.49481 164.5422,-66.32244 43.01354,-5.32517 65.18734,-5.33904 110.21024,-0.0689 73.1828,8.56637 130.2941,29.85323 160.8961,59.97024 17.5099,17.2323 32.129,42.7859 35.0973,61.3484 2.3701,14.822 5.797,14.8829 8.2866,0.1473 5.285,-31.282 35.9341,-68.78128 71.4931,-87.47221 45.0004,-23.65357 105.1898,-35.99803 177.0665,-36.31517 56.4357,-0.24901 89.23,4.57288 135.7143,19.95473 61.3474,20.30016 98.1697,53.15245 108.822,97.08995 4.8674,20.0758 7.3665,20.8839 10.97,3.5466 13.0623,-62.8506 79.2037,-103.82207 191.6365,-118.70988 42.3983,-5.61418 209.9518,-5.7514 391.4286,-0.32056 60.5,1.81051 231.5,3.46001 380,3.66554 148.5,0.20554 278.6786,0.62442 289.2857,0.93086 l 19.2857,0.55717 v 647.14287 647.1428 H 856.43899 -1350.7039 Z"
       id="path2858"
       inkscape:connector-curvature="0" />
    <path
       inkscape:connector-curvature="0"
       id="path2860"
       d="M -1350.7039,1596.7485 V 948.17706 h 297.233 c 294.70103,0 297.38435,0.0513 315.00003,6.01776 21.56269,7.30338 48.31106,6.37195 68.0748,-2.37049 12.85609,-5.68686 19.06272,-5.8006 374.23969,-6.85787 340.88837,-1.01475 362.851198,-0.77954 391.166798,4.18906 39.511662,6.9332 85.591942,21.99831 108.232062,35.38451 34.56168,20.43497 60.08714,53.18577 64.8974,83.26757 1.03762,6.4889 2.90142,11.798 4.1418,11.798 1.24037,0 3.67725,-6.6307 5.41531,-14.7349 4.71846,-22.0014 16.47106,-41.1298 36.60637,-59.5802 42.49614,-38.93996 118.57603,-60.80778 212.13563,-60.97461 132.64649,-0.23652 232.69086,49.55812 244.67634,121.78161 2.61715,15.7709 5.85672,15.4758 9.35849,-0.8523 4.24443,-19.7911 12.67277,-35.301 28.37314,-52.2126 32.88792,-35.42515 85.16057,-56.49481 164.5422,-66.32244 43.01354,-5.32517 65.18734,-5.33904 110.21024,-0.0689 73.1828,8.56637 130.2941,29.85323 160.8961,59.97024 17.5099,17.2323 32.129,42.7859 35.0973,61.3484 2.3701,14.822 5.797,14.8829 8.2866,0.1473 5.285,-31.282 35.9341,-68.78128 71.4931,-87.47221 45.0004,-23.65357 105.1898,-35.99803 177.0665,-36.31517 56.4357,-0.24901 89.23,4.57288 135.7143,19.95473 61.3474,20.30016 98.1697,53.15245 108.822,97.08995 4.8674,20.0758 7.3665,20.8839 10.97,3.5466 13.0623,-62.8506 79.2037,-103.82207 191.6365,-118.70988 42.3983,-5.61418 209.9518,-5.7514 391.4286,-0.32056 60.5,1.81051 231.5,3.46001 380,3.66554 148.5,0.20554 278.6786,0.62442 289.2857,0.93086 l 19.2857,0.55717 v 647.14287 647.1428 H 856.43899 -1350.7039 Z"
       style="opacity:0.37600002;fill:#2a3cd9;fill-opacity:0.50196078;fill-rule:nonzero;stroke-width:1.07999992;stroke-miterlimit:4;stroke-dasharray:none" />
    <path
       style="opacity:0.37600002;fill:#2a3cd9;fill-opacity:0.50196078;fill-rule:nonzero;stroke-width:1.07999992;stroke-miterlimit:4;stroke-dasharray:none"
       d="M -1350.7039,1596.7485 V 948.17706 h 297.233 c 294.70103,0 297.38435,0.0513 315.00003,6.01776 21.56269,7.30338 48.31106,6.37195 68.0748,-2.37049 12.85609,-5.68686 19.06272,-5.8006 374.23969,-6.85787 340.88837,-1.01475 362.851198,-0.77954 391.166798,4.18906 39.511662,6.9332 85.591942,21.99831 108.232062,35.38451 34.56168,20.43497 60.08714,53.18577 64.8974,83.26757 1.03762,6.4889 2.90142,11.798 4.1418,11.798 1.24037,0 3.67725,-6.6307 5.41531,-14.7349 4.71846,-22.0014 16.47106,-41.1298 36.60637,-59.5802 42.49614,-38.93996 118.57603,-60.80778 212.13563,-60.97461 132.64649,-0.23652 232.69086,49.55812 244.67634,121.78161 2.61715,15.7709 5.85672,15.4758 9.35849,-0.8523 4.24443,-19.7911 12.67277,-35.301 28.37314,-52.2126 32.88792,-35.42515 85.16057,-56.49481 164.5422,-66.32244 43.01354,-5.32517 65.18734,-5.33904 110.21024,-0.0689 73.1828,8.56637 130.2941,29.85323 160.8961,59.97024 17.5099,17.2323 32.129,42.7859 35.0973,61.3484 2.3701,14.822 5.797,14.8829 8.2866,0.1473 5.285,-31.282 35.9341,-68.78128 71.4931,-87.47221 45.0004,-23.65357 105.1898,-35.99803 177.0665,-36.31517 56.4357,-0.24901 89.23,4.57288 135.7143,19.95473 61.3474,20.30016 98.1697,53.15245 108.822,97.08995 4.8674,20.0758 7.3665,20.8839 10.97,3.5466 13.0623,-62.8506 79.2037,-103.82207 191.6365,-118.70988 42.3983,-5.61418 209.9518,-5.7514 391.4286,-0.32056 60.5,1.81051 231.5,3.46001 380,3.66554 148.5,0.20554 278.6786,0.62442 289.2857,0.93086 l 19.2857,0.55717 v 647.14287 647.1428 H 856.43899 -1350.7039 Z"
       id="path2862"
       inkscape:connector-curvature="0" />
    <path
       inkscape:connector-curvature="0"
       id="path2864"
       d="M -1350.7039,1596.7485 V 948.17706 h 297.233 c 294.70103,0 297.38435,0.0513 315.00003,6.01776 21.56269,7.30338 48.31106,6.37195 68.0748,-2.37049 12.85609,-5.68686 19.06272,-5.8006 374.23969,-6.85787 340.88837,-1.01475 362.851198,-0.77954 391.166798,4.18906 39.511662,6.9332 85.591942,21.99831 108.232062,35.38451 34.56168,20.43497 60.08714,53.18577 64.8974,83.26757 1.03762,6.4889 2.90142,11.798 4.1418,11.798 1.24037,0 3.67725,-6.6307 5.41531,-14.7349 4.71846,-22.0014 16.47106,-41.1298 36.60637,-59.5802 42.49614,-38.93996 118.57603,-60.80778 212.13563,-60.97461 132.64649,-0.23652 232.69086,49.55812 244.67634,121.78161 2.61715,15.7709 5.85672,15.4758 9.35849,-0.8523 4.24443,-19.7911 12.67277,-35.301 28.37314,-52.2126 32.88792,-35.42515 85.16057,-56.49481 164.5422,-66.32244 43.01354,-5.32517 65.18734,-5.33904 110.21024,-0.0689 73.1828,8.56637 130.2941,29.85323 160.8961,59.97024 17.5099,17.2323 32.129,42.7859 35.0973,61.3484 2.3701,14.822 5.797,14.8829 8.2866,0.1473 5.285,-31.282 35.9341,-68.78128 71.4931,-87.47221 45.0004,-23.65357 105.1898,-35.99803 177.0665,-36.31517 56.4357,-0.24901 89.23,4.57288 135.7143,19.95473 61.3474,20.30016 98.1697,53.15245 108.822,97.08995 4.8674,20.0758 7.3665,20.8839 10.97,3.5466 13.0623,-62.8506 79.2037,-103.82207 191.6365,-118.70988 42.3983,-5.61418 209.9518,-5.7514 391.4286,-0.32056 60.5,1.81051 231.5,3.46001 380,3.66554 148.5,0.20554 278.6786,0.62442 289.2857,0.93086 l 19.2857,0.55717 v 647.14287 647.1428 H 856.43899 -1350.7039 Z"
       style="opacity:0.37600002;fill:#2a3cd9;fill-opacity:0.50196078;fill-rule:nonzero;stroke-width:1.07999992;stroke-miterlimit:4;stroke-dasharray:none" />
    <path
       style="opacity:0.37600002;fill:#2a3cd9;fill-opacity:0.50196078;fill-rule:nonzero;stroke-width:1.07999992;stroke-miterlimit:4;stroke-dasharray:none"
       d="M -1350.7039,1596.7485 V 948.17706 h 297.233 c 294.70103,0 297.38435,0.0513 315.00003,6.01776 21.56269,7.30338 48.31106,6.37195 68.0748,-2.37049 12.85609,-5.68686 19.06272,-5.8006 374.23969,-6.85787 340.88837,-1.01475 362.851198,-0.77954 391.166798,4.18906 39.511662,6.9332 85.591942,21.99831 108.232062,35.38451 34.56168,20.43497 60.08714,53.18577 64.8974,83.26757 1.03762,6.4889 2.90142,11.798 4.1418,11.798 1.24037,0 3.67725,-6.6307 5.41531,-14.7349 4.71846,-22.0014 16.47106,-41.1298 36.60637,-59.5802 42.49614,-38.93996 118.57603,-60.80778 212.13563,-60.97461 132.64649,-0.23652 232.69086,49.55812 244.67634,121.78161 2.61715,15.7709 5.85672,15.4758 9.35849,-0.8523 4.24443,-19.7911 12.67277,-35.301 28.37314,-52.2126 32.88792,-35.42515 85.16057,-56.49481 164.5422,-66.32244 43.01354,-5.32517 65.18734,-5.33904 110.21024,-0.0689 73.1828,8.56637 130.2941,29.85323 160.8961,59.97024 17.5099,17.2323 32.129,42.7859 35.0973,61.3484 2.3701,14.822 5.797,14.8829 8.2866,0.1473 5.285,-31.282 35.9341,-68.78128 71.4931,-87.47221 45.0004,-23.65357 105.1898,-35.99803 177.0665,-36.31517 56.4357,-0.24901 89.23,4.57288 135.7143,19.95473 61.3474,20.30016 98.1697,53.15245 108.822,97.08995 4.8674,20.0758 7.3665,20.8839 10.97,3.5466 13.0623,-62.8506 79.2037,-103.82207 191.6365,-118.70988 42.3983,-5.61418 209.9518,-5.7514 391.4286,-0.32056 60.5,1.81051 231.5,3.46001 380,3.66554 148.5,0.20554 278.6786,0.62442 289.2857,0.93086 l 19.2857,0.55717 v 647.14287 647.1428 H 856.43899 -1350.7039 Z"
       id="path2866"
       inkscape:connector-curvature="0" />
    <path
       inkscape:connector-curvature="0"
       id="path2868"
       d="M -1350.7039,1596.7485 V 948.17706 h 297.233 c 294.70103,0 297.38435,0.0513 315.00003,6.01776 21.56269,7.30338 48.31106,6.37195 68.0748,-2.37049 12.85609,-5.68686 19.06272,-5.8006 374.23969,-6.85787 340.88837,-1.01475 362.851198,-0.77954 391.166798,4.18906 39.511662,6.9332 85.591942,21.99831 108.232062,35.38451 34.56168,20.43497 60.08714,53.18577 64.8974,83.26757 1.03762,6.4889 2.90142,11.798 4.1418,11.798 1.24037,0 3.67725,-6.6307 5.41531,-14.7349 4.71846,-22.0014 16.47106,-41.1298 36.60637,-59.5802 42.49614,-38.93996 118.57603,-60.80778 212.13563,-60.97461 132.64649,-0.23652 232.69086,49.55812 244.67634,121.78161 2.61715,15.7709 5.85672,15.4758 9.35849,-0.8523 4.24443,-19.7911 12.67277,-35.301 28.37314,-52.2126 32.88792,-35.42515 85.16057,-56.49481 164.5422,-66.32244 43.01354,-5.32517 65.18734,-5.33904 110.21024,-0.0689 73.1828,8.56637 130.2941,29.85323 160.8961,59.97024 17.5099,17.2323 32.129,42.7859 35.0973,61.3484 2.3701,14.822 5.797,14.8829 8.2866,0.1473 5.285,-31.282 35.9341,-68.78128 71.4931,-87.47221 45.0004,-23.65357 105.1898,-35.99803 177.0665,-36.31517 56.4357,-0.24901 89.23,4.57288 135.7143,19.95473 61.3474,20.30016 98.1697,53.15245 108.822,97.08995 4.8674,20.0758 7.3665,20.8839 10.97,3.5466 13.0623,-62.8506 79.2037,-103.82207 191.6365,-118.70988 42.3983,-5.61418 209.9518,-5.7514 391.4286,-0.32056 60.5,1.81051 231.5,3.46001 380,3.66554 148.5,0.20554 278.6786,0.62442 289.2857,0.93086 l 19.2857,0.55717 v 647.14287 647.1428 H 856.43899 -1350.7039 Z"
       style="opacity:0.37600002;fill:#2a3cd9;fill-opacity:0.50196078;fill-rule:nonzero;stroke-width:1.07999992;stroke-miterlimit:4;stroke-dasharray:none" />
    <path
       style="opacity:0.37600002;fill:#2a3cd9;fill-opacity:0.50196078;fill-rule:nonzero;stroke-width:1.07999992;stroke-miterlimit:4;stroke-dasharray:none"
       d="M -1350.7039,1596.7485 V 948.17706 h 297.233 c 294.70103,0 297.38435,0.0513 315.00003,6.01776 21.56269,7.30338 48.31106,6.37195 68.0748,-2.37049 12.85609,-5.68686 19.06272,-5.8006 374.23969,-6.85787 340.88837,-1.01475 362.851198,-0.77954 391.166798,4.18906 39.511662,6.9332 85.591942,21.99831 108.232062,35.38451 34.56168,20.43497 60.08714,53.18577 64.8974,83.26757 1.03762,6.4889 2.90142,11.798 4.1418,11.798 1.24037,0 3.67725,-6.6307 5.41531,-14.7349 4.71846,-22.0014 16.47106,-41.1298 36.60637,-59.5802 42.49614,-38.93996 118.57603,-60.80778 212.13563,-60.97461 132.64649,-0.23652 232.69086,49.55812 244.67634,121.78161 2.61715,15.7709 5.85672,15.4758 9.35849,-0.8523 4.24443,-19.7911 12.67277,-35.301 28.37314,-52.2126 32.88792,-35.42515 85.16057,-56.49481 164.5422,-66.32244 43.01354,-5.32517 65.18734,-5.33904 110.21024,-0.0689 73.1828,8.56637 130.2941,29.85323 160.8961,59.97024 17.5099,17.2323 32.129,42.7859 35.0973,61.3484 2.3701,14.822 5.797,14.8829 8.2866,0.1473 5.285,-31.282 35.9341,-68.78128 71.4931,-87.47221 45.0004,-23.65357 105.1898,-35.99803 177.0665,-36.31517 56.4357,-0.24901 89.23,4.57288 135.7143,19.95473 61.3474,20.30016 98.1697,53.15245 108.822,97.08995 4.8674,20.0758 7.3665,20.8839 10.97,3.5466 13.0623,-62.8506 79.2037,-103.82207 191.6365,-118.70988 42.3983,-5.61418 209.9518,-5.7514 391.4286,-0.32056 60.5,1.81051 231.5,3.46001 380,3.66554 148.5,0.20554 278.6786,0.62442 289.2857,0.93086 l 19.2857,0.55717 v 647.14287 647.1428 H 856.43899 -1350.7039 Z"
       id="path2870"
       inkscape:connector-curvature="0" />
    <path
       inkscape:connector-curvature="0"
       id="path2872"
       d="M -1350.7039,1596.7485 V 948.17706 h 297.233 c 294.70103,0 297.38435,0.0513 315.00003,6.01776 21.56269,7.30338 48.31106,6.37195 68.0748,-2.37049 12.85609,-5.68686 19.06272,-5.8006 374.23969,-6.85787 340.88837,-1.01475 362.851198,-0.77954 391.166798,4.18906 39.511662,6.9332 85.591942,21.99831 108.232062,35.38451 34.56168,20.43497 60.08714,53.18577 64.8974,83.26757 1.03762,6.4889 2.90142,11.798 4.1418,11.798 1.24037,0 3.67725,-6.6307 5.41531,-14.7349 4.71846,-22.0014 16.47106,-41.1298 36.60637,-59.5802 42.49614,-38.93996 118.57603,-60.80778 212.13563,-60.97461 132.64649,-0.23652 232.69086,49.55812 244.67634,121.78161 2.61715,15.7709 5.85672,15.4758 9.35849,-0.8523 4.24443,-19.7911 12.67277,-35.301 28.37314,-52.2126 32.88792,-35.42515 85.16057,-56.49481 164.5422,-66.32244 43.01354,-5.32517 65.18734,-5.33904 110.21024,-0.0689 73.1828,8.56637 130.2941,29.85323 160.8961,59.97024 17.5099,17.2323 32.129,42.7859 35.0973,61.3484 2.3701,14.822 5.797,14.8829 8.2866,0.1473 5.285,-31.282 35.9341,-68.78128 71.4931,-87.47221 45.0004,-23.65357 105.1898,-35.99803 177.0665,-36.31517 56.4357,-0.24901 89.23,4.57288 135.7143,19.95473 61.3474,20.30016 98.1697,53.15245 108.822,97.08995 4.8674,20.0758 7.3665,20.8839 10.97,3.5466 13.0623,-62.8506 79.2037,-103.82207 191.6365,-118.70988 42.3983,-5.61418 209.9518,-5.7514 391.4286,-0.32056 60.5,1.81051 231.5,3.46001 380,3.66554 148.5,0.20554 278.6786,0.62442 289.2857,0.93086 l 19.2857,0.55717 v 647.14287 647.1428 H 856.43899 -1350.7039 Z"
       style="opacity:0.37600002;fill:#2a3cd9;fill-opacity:0.50196078;fill-rule:nonzero;stroke-width:1.07999992;stroke-miterlimit:4;stroke-dasharray:none" />
    <path
       style="opacity:0.37600002;fill:#2a3cd9;fill-opacity:0.50196078;fill-rule:nonzero;stroke-width:1.07999992;stroke-miterlimit:4;stroke-dasharray:none"
       d="M -1350.7039,1596.7485 V 948.17706 h 297.233 c 294.70103,0 297.38435,0.0513 315.00003,6.01776 21.56269,7.30338 48.31106,6.37195 68.0748,-2.37049 12.85609,-5.68686 19.06272,-5.8006 374.23969,-6.85787 340.88837,-1.01475 362.851198,-0.77954 391.166798,4.18906 39.511662,6.9332 85.591942,21.99831 108.232062,35.38451 34.56168,20.43497 60.08714,53.18577 64.8974,83.26757 1.03762,6.4889 2.90142,11.798 4.1418,11.798 1.24037,0 3.67725,-6.6307 5.41531,-14.7349 4.71846,-22.0014 16.47106,-41.1298 36.60637,-59.5802 42.49614,-38.93996 118.57603,-60.80778 212.13563,-60.97461 132.64649,-0.23652 232.69086,49.55812 244.67634,121.78161 2.61715,15.7709 5.85672,15.4758 9.35849,-0.8523 4.24443,-19.7911 12.67277,-35.301 28.37314,-52.2126 32.88792,-35.42515 85.16057,-56.49481 164.5422,-66.32244 43.01354,-5.32517 65.18734,-5.33904 110.21024,-0.0689 73.1828,8.56637 130.2941,29.85323 160.8961,59.97024 17.5099,17.2323 32.129,42.7859 35.0973,61.3484 2.3701,14.822 5.797,14.8829 8.2866,0.1473 5.285,-31.282 35.9341,-68.78128 71.4931,-87.47221 45.0004,-23.65357 105.1898,-35.99803 177.0665,-36.31517 56.4357,-0.24901 89.23,4.57288 135.7143,19.95473 61.3474,20.30016 98.1697,53.15245 108.822,97.08995 4.8674,20.0758 7.3665,20.8839 10.97,3.5466 13.0623,-62.8506 79.2037,-103.82207 191.6365,-118.70988 42.3983,-5.61418 209.9518,-5.7514 391.4286,-0.32056 60.5,1.81051 231.5,3.46001 380,3.66554 148.5,0.20554 278.6786,0.62442 289.2857,0.93086 l 19.2857,0.55717 v 647.14287 647.1428 H 856.43899 -1350.7039 Z"
       id="path2874"
       inkscape:connector-curvature="0" />
    <path
       inkscape:connector-curvature="0"
       id="path2876"
       d="M -1350.7039,1596.7485 V 948.17706 h 297.233 c 294.70103,0 297.38435,0.0513 315.00003,6.01776 21.56269,7.30338 48.31106,6.37195 68.0748,-2.37049 12.85609,-5.68686 19.06272,-5.8006 374.23969,-6.85787 340.88837,-1.01475 362.851198,-0.77954 391.166798,4.18906 39.511662,6.9332 85.591942,21.99831 108.232062,35.38451 34.56168,20.43497 60.08714,53.18577 64.8974,83.26757 1.03762,6.4889 2.90142,11.798 4.1418,11.798 1.24037,0 3.67725,-6.6307 5.41531,-14.7349 4.71846,-22.0014 16.47106,-41.1298 36.60637,-59.5802 42.49614,-38.93996 118.57603,-60.80778 212.13563,-60.97461 132.64649,-0.23652 232.69086,49.55812 244.67634,121.78161 2.61715,15.7709 5.85672,15.4758 9.35849,-0.8523 4.24443,-19.7911 12.67277,-35.301 28.37314,-52.2126 32.88792,-35.42515 85.16057,-56.49481 164.5422,-66.32244 43.01354,-5.32517 65.18734,-5.33904 110.21024,-0.0689 73.1828,8.56637 130.2941,29.85323 160.8961,59.97024 17.5099,17.2323 32.129,42.7859 35.0973,61.3484 2.3701,14.822 5.797,14.8829 8.2866,0.1473 5.285,-31.282 35.9341,-68.78128 71.4931,-87.47221 45.0004,-23.65357 105.1898,-35.99803 177.0665,-36.31517 56.4357,-0.24901 89.23,4.57288 135.7143,19.95473 61.3474,20.30016 98.1697,53.15245 108.822,97.08995 4.8674,20.0758 7.3665,20.8839 10.97,3.5466 13.0623,-62.8506 79.2037,-103.82207 191.6365,-118.70988 42.3983,-5.61418 209.9518,-5.7514 391.4286,-0.32056 60.5,1.81051 231.5,3.46001 380,3.66554 148.5,0.20554 278.6786,0.62442 289.2857,0.93086 l 19.2857,0.55717 v 647.14287 647.1428 H 856.43899 -1350.7039 Z"
       style="opacity:0.37600002;fill:#2a3cd9;fill-opacity:0.50196078;fill-rule:nonzero;stroke-width:1.07999992;stroke-miterlimit:4;stroke-dasharray:none" />
    <use
       x="0"
       y="0"
       xlink:href="#path2876"
       id="use2878" />
    <rect
       style="opacity:0.5;fill:#2a3bd9;fill-opacity:1;fill-rule:nonzero;stroke-width:1.43302882"
       id="rect2494-24-5"
       width="1314.2856"
       height="185.71428"
       x="787.99554"
       y="1386.3073"
       ry="92.85714"
       rx="0"
       transform="rotate(-31.810406)"
       inkscape:transform-center-x="237.14286"
       inkscape:transform-center-y="-102.85714" />
    <path
       style="opacity:0.865;fill:url(#linearGradient2903);fill-opacity:1;fill-rule:nonzero;stroke-width:0.37799999;stroke-miterlimit:4;stroke-dasharray:none"
       id="path2895"
       sodipodi:type="arc"
       sodipodi:cx="1777.1428"
       sodipodi:cy="137.14285"
       sodipodi:rx="274.28571"
       sodipodi:ry="271.42856"
       sodipodi:start="0.51503832"
       sodipodi:end="0.46232368"
       d="M 2015.8465,270.83993 A 274.28571,271.42856 0 0 1 1645.1958,375.10141 274.28571,271.42856 0 0 1 1534.9615,9.7175452 274.28571,271.42856 0 0 1 1902.7067,-104.1742 274.28571,271.42856 0 0 1 2022.6336,258.20787 L 1777.1428,137.14285 Z" />
    <path
       style="opacity:0.86499999;fill:url(#linearGradient2915);fill-opacity:1.0;fill-rule:nonzero;stroke-width:0.37799999;stroke-miterlimit:4;stroke-dasharray:none"
       id="path2907"
       sodipodi:type="arc"
       sodipodi:cx="1404.2858"
       sodipodi:cy="71.428574"
       sodipodi:rx="92.85714"
       sodipodi:ry="91.428574"
       sodipodi:start="0.51503794"
       sodipodi:end="0.46232376"
       d="m 1485.0969,116.46335 a 92.85714,91.428574 0 0 1 -125.4807,35.1197 92.85714,91.428574 0 0 1 -37.3189,-123.076676 92.85714,91.428574 0 0 1 124.4971,-38.3635519 92.85714,91.428574 0 0 1 40.6002,122.0655579 l -83.1088,-40.779806 z" />
  </g>
</svg>
