<svg version="1.1"
      xmlns="http://www.w3.org/2000/svg"
      xmlns:xlink="http://www.w3.org/1999/xlink"  id="snapshot-33509" width="250" height="250" viewBox="0 0 250 250"><desc>This image was made on Patterninja.com</desc><defs>
<!-- image 26389 -->
<g id="transformed-26389" data-image="26389" transform="translate(220.32983511438138, 25.107556010550198) rotate(329, 13.670164885618606, 13.892443989449804)"><g><svg version="1.1" width="27.34032977123721px" height="27.784887978899608px" viewBox="0 0 27.34032977123721 27.784887978899608"><g id="original-26389"><svg xmlns="http://www.w3.org/2000/svg" viewBox="0 0 65 66" xmlns:xlink="http://www.w3.org/1999/xlink" version="1.1" preserveAspectRatio="xMidYMid meet">
  <rect width="32" height="52" x="33" y="14" fill-rule="evenodd" rx="10" fill="rgba(215, 212, 212, 1)" stroke="none"/>
  <path fill-rule="evenodd" d="M45.997 14h-3.004C37.483 14 33 18.475 33 23.995v32.01C33 61.522 37.474 66 42.993 66H49V14h-3.003z" fill="rgba(255, 255, 255, 0.5)" stroke="none"/>
  <path fill-rule="evenodd" d="M49 21a3 3 0 0 1 3 3v6a3 3 0 0 1-6 0v-6a3 3 0 0 1 3-3z" fill="rgba(98, 98, 98, 1)" stroke="none"/>
  <path fill-rule="evenodd" d="M51 14h-4V8h.006a4.1 4.1 0 0 0 .061-.7 3.3 3.3 0 0 0-3.277-3.319L27 4c-.063 0-.123-.013-.185-.019a3.287 3.287 0 0 0-2.832 3.229v4.641c0 .05.015.1.015.149v36.79a7.265 7.265 0 0 1-7.3 7.21c-4.026 0-7.7-3.024-7.7-7V37a2.808 2.808 0 0 0-2.922-3.067H2.487A1.969 1.969 0 0 1 2 34a2 2 0 1 1 0-4h4.078A6.77 6.77 0 0 1 13 37v12c0 1.807 1.868 3.067 3.7 3.067a3.3 3.3 0 0 0 3.319-3.277v-4.641c0-.05-.015-.1-.015-.149V7.21a7.253 7.253 0 0 1 6.7-7.18c.098-.018.197-.028.296-.03h16.79A7.265 7.265 0 0 1 51 7.3c0 .234-.012.467-.033.7H51v6z" fill="rgba(122, 122, 122, 1)" stroke="none"/>
</svg>
</g></svg></g></g>
<!-- /image 26389 -->

<!-- image 27887 -->
<g id="transformed-27887" data-image="27887" transform="translate(167.26786250536298, -2.7807090948086) rotate(340, 29.732137494637012, 28.7807090948086)"><g><svg version="1.1" width="59.464274989274024px" height="57.5614181896172px" viewBox="0 0 59.464274989274024 57.5614181896172"><g id="original-27887"><svg xmlns="http://www.w3.org/2000/svg" viewBox="0 0 70 68" xmlns:xlink="http://www.w3.org/1999/xlink" version="1.1" preserveAspectRatio="xMidYMid meet">
  <path fill-rule="evenodd" d="M14 65c9.113 0 11-2.853 11-8 0-.169-.02-.832-.025-1h20.05c0 .168-.025.831-.025 1 0 5.147 1.887 8 11 8v3H14v-3z" fill="rgba(58, 62, 67, 1)" stroke="none"/>
  <rect width="70" height="54" y="2" fill-rule="evenodd" rx="6" fill="rgba(111, 130, 164, 1)" stroke="none"/>
  <path fill-rule="evenodd" d="M70 47V5.998A5.993 5.993 0 0 0 64.002 0H5.998A5.995 5.995 0 0 0 0 5.998V47h70z" fill="rgba(185, 196, 216, 1)" stroke="none"/>
  <circle cx="35" cy="52" r="3" fill-rule="evenodd" fill="rgba(80, 96, 121, 1)" stroke="none"/>
</svg>
</g></svg></g></g>
<!-- /image 27887 -->

<!-- image 19598 -->
<g id="transformed-19598" data-image="19598" transform="translate(176.91199250936495, 0.9119925093649393) rotate(339, 17.088007490635057, 17.08800749063506)"><g><svg version="1.1" width="34.176014981270114px" height="34.17601498127012px" viewBox="0 0 34.176014981270114 34.17601498127012"><g id="original-19598"><svg xmlns="http://www.w3.org/2000/svg" viewBox="0 0 72 72" xmlns:xlink="http://www.w3.org/1999/xlink" version="1.1" preserveAspectRatio="xMidYMid meet">
  <rect width="72" height="72" fill-rule="evenodd" rx="6" fill="rgba(176, 176, 176, 1)" stroke="none"/>
  <path fill-rule="evenodd" d="M0 0h72v16H0z" fill="rgba(143, 143, 143, 1)" stroke="none"/>
  <circle cx="8" cy="8" r="4" fill-rule="evenodd" fill="rgba(230, 69, 69, 1)" stroke="none"/>
  <circle cx="20" cy="8" r="4" fill-rule="evenodd" fill="rgba(255, 208, 44, 1)" stroke="none"/>
  <circle cx="32" cy="8" r="4" fill-rule="evenodd" fill="rgba(174, 228, 45, 1)" stroke="none"/>
  <path fill-rule="evenodd" d="M5 21h62v46H5z" fill="rgba(214, 214, 214, 1)" stroke="none"/>
</svg>
</g></svg></g></g>
<!-- /image 19598 -->

<!-- image 57755 -->
<g id="transformed-57755" data-image="57755" transform="translate(165.41296685507712, 24.412966855077098) rotate(13, 21.587033144922895, 21.587033144922902)"><g><svg version="1.1" width="43.17406628984579px" height="43.174066289845804px" viewBox="0 0 43.17406628984579 43.174066289845804"><g id="original-57755"><svg xmlns="http://www.w3.org/2000/svg" viewBox="0 0 66 66" xmlns:xlink="http://www.w3.org/1999/xlink" version="1.1" preserveAspectRatio="xMidYMid meet">
  <path fill-rule="evenodd" d="M63 66H3a3 3 0 0 1-3-3V3a3 3 0 0 1 3-3h51l12 12v51a3 3 0 0 1-3 3z" fill="rgba(48, 69, 159, 1)" stroke="none"/>
  <path fill-rule="evenodd" d="M54 0v21a3 3 0 0 1-3 3H15a3 3 0 0 1-3-3V0h42z" fill="rgba(178, 178, 178, 1)" stroke="none"/>
  <path fill-rule="evenodd" d="M39 4h11v16H39z" fill="rgba(116, 122, 145, 1)" stroke="none"/>
  <path fill-rule="evenodd" d="M54 66V37a3 3 0 0 0-3-3H15a3 3 0 0 0-3 3v29h42z" fill="rgba(217, 217, 194, 1)" stroke="none"/>
  <path fill-rule="evenodd" d="M19.5 57h27a.5.5 0 1 1 0 1h-27a.5.5 0 1 1 0-1z" fill="rgba(116, 122, 144, 1)" stroke="none"/>
  <path fill-rule="evenodd" d="M19.5 49h27a.5.5 0 1 1 0 1h-27a.5.5 0 1 1 0-1z" fill="rgba(116, 122, 144, 1)" stroke="none"/>
  <path fill-rule="evenodd" d="M19.5 41h27a.5.5 0 1 1 0 1h-27a.5.5 0 1 1 0-1z" fill="rgba(116, 122, 144, 1)" stroke="none"/>
</svg>
</g></svg></g></g>
<!-- /image 57755 -->

<!-- image 15209 -->
<g id="transformed-15209" data-image="15209" transform="translate(178.18861169915812, 184.69457612478504) rotate(18, 15.811388300841896, 15.30542387521497)"><g><svg version="1.1" width="31.622776601683793px" height="30.61084775042994px" viewBox="0 0 31.622776601683793 30.61084775042994"><g id="original-15209"><svg xmlns="http://www.w3.org/2000/svg" viewBox="0 0 70 68" xmlns:xlink="http://www.w3.org/1999/xlink" version="1.1" preserveAspectRatio="xMidYMid meet">
  <path fill-rule="evenodd" d="M70 37v25a6 6 0 0 1-6 6H6a6 6 0 0 1-6-6V37h70z" fill="rgba(183, 91, 36, 1)" stroke="none"/>
  <path fill-rule="evenodd" d="M0 37V18a6 6 0 0 1 6-6h14V6a6 6 0 0 1 6-6h18a6 6 0 0 1 6 6v6h14a6 6 0 0 1 6 6v19H0zm45-27V8a3 3 0 0 0-3-3H28a3 3 0 0 0-3 3v4h20v-2z" fill="rgba(154, 76, 29, 1)" stroke="none"/>
  <path fill-rule="evenodd" d="M53 33a4 4 0 1 1 0 8 4 4 0 0 1 0-8z" fill="rgba(200, 146, 17, 1)" stroke="none"/>
  <path fill-rule="evenodd" d="M17 33a4 4 0 1 1 0 8 4 4 0 0 1 0-8z" fill="rgba(200, 146, 17, 1)" stroke="none"/>
</svg>
</g></svg></g></g>
<!-- /image 15209 -->

<!-- image 66999 -->
<g id="transformed-66999" data-image="66999" transform="translate(145.91320723876962, 171.65198460712895) rotate(342, 23.08679276123039, 22.348015392871037)"><g><svg version="1.1" width="46.17358552246078px" height="44.696030785742074px" viewBox="0 0 46.17358552246078 44.696030785742074"><g id="original-66999"><svg xmlns="http://www.w3.org/2000/svg" viewBox="0 0 70 68" xmlns:xlink="http://www.w3.org/1999/xlink" version="1.1" preserveAspectRatio="xMidYMid meet">
  <path fill-rule="evenodd" d="M70 37v25a6 6 0 0 1-6 6H6a6 6 0 0 1-6-6V37h70z" fill="rgba(183, 91, 36, 1)" stroke="none"/>
  <path fill-rule="evenodd" d="M0 37V18a6 6 0 0 1 6-6h14V6a6 6 0 0 1 6-6h18a6 6 0 0 1 6 6v6h14a6 6 0 0 1 6 6v19H0zm45-27V8a3 3 0 0 0-3-3H28a3 3 0 0 0-3 3v4h20v-2z" fill="rgba(154, 76, 29, 1)" stroke="none"/>
  <path fill-rule="evenodd" d="M53 33a4 4 0 1 1 0 8 4 4 0 0 1 0-8z" fill="rgba(200, 146, 17, 1)" stroke="none"/>
  <path fill-rule="evenodd" d="M17 33a4 4 0 1 1 0 8 4 4 0 0 1 0-8z" fill="rgba(200, 146, 17, 1)" stroke="none"/>
</svg>
</g></svg></g></g>
<!-- /image 66999 -->

<!-- image 84144 -->
<g id="transformed-84144" data-image="84144" transform="translate(12.093887732912368, 29.753005570800926) rotate(32, 31.906112267087632, 30.246994429199074)"><g><svg version="1.1" width="63.812224534175265px" height="60.49398885839815px" viewBox="0 0 63.812224534175265 60.49398885839815"><g id="original-84144"><svg xmlns="http://www.w3.org/2000/svg" viewBox="0 0 78 74" xmlns:xlink="http://www.w3.org/1999/xlink" version="1.1" preserveAspectRatio="xMidYMid meet">
  <g transform="translate(-1 -4)">
    <path d="M28.588 45.077s-8.84-.618-12.512 6.19c-3.67 6.81-1.064 13.048-4.513 17.542C8.115 73.302.97 74.347.97 74.347s16.398 8.342 28.668-1.145 7.996-20.262 6.8-23.491c-1.197-3.23-7.85-4.634-7.85-4.634z" fill="rgba(145, 113, 82, 1)" stroke="none" fill-rule="evenodd"/>
    <path d="M78.808 9.332c.304.304.179.992-.285 1.544L46.875 50.35c-.438.572-1.408.422-2.156-.326L33.752 39.056c-.753-.753-.902-1.717-.328-2.158L72.84 5.192c.548-.462 1.24-.59 1.543-.287l4.426 4.427z" fill="rgba(67, 193, 220, 1)" stroke="none" fill-rule="evenodd"/>
    <path d="M39.157 44.461l5.562 5.562c.748.748 1.718.898 2.156.326l31.648-39.473c.464-.552.59-1.24.285-1.544l-2.26-2.26-37.39 37.39z" fill="rgba(0, 163, 198, 1)" stroke="none" fill-rule="evenodd"/>
    <rect width="25" height="13" x="22.935" y="41.935" transform="rotate(45 35.435 48.435)" rx="2" fill="rgba(216, 216, 216, 1)" stroke="none" fill-rule="evenodd"/>
  </g>
</svg>
</g></svg></g></g>
<!-- /image 84144 -->

<!-- image 88729 -->
<g id="transformed-88729" data-image="88729" transform="translate(37.972243622680054, 58.909686954300696) rotate(356, 18.027756377319946, 17.090313045699304)"><g><svg version="1.1" width="36.05551275463989px" height="34.18062609139861px" viewBox="0 0 36.05551275463989 34.18062609139861"><g id="original-88729"><svg xmlns="http://www.w3.org/2000/svg" viewBox="0 0 78 74" xmlns:xlink="http://www.w3.org/1999/xlink" version="1.1" preserveAspectRatio="xMidYMid meet">
  <g transform="translate(-1 -4)">
    <path d="M28.588 45.077s-8.84-.618-12.512 6.19c-3.67 6.81-1.064 13.048-4.513 17.542C8.115 73.302.97 74.347.97 74.347s16.398 8.342 28.668-1.145 7.996-20.262 6.8-23.491c-1.197-3.23-7.85-4.634-7.85-4.634z" fill="rgba(145, 113, 82, 1)" stroke="none" fill-rule="evenodd"/>
    <path d="M78.808 9.332c.304.304.179.992-.285 1.544L46.875 50.35c-.438.572-1.408.422-2.156-.326L33.752 39.056c-.753-.753-.902-1.717-.328-2.158L72.84 5.192c.548-.462 1.24-.59 1.543-.287l4.426 4.427z" fill="rgba(67, 193, 220, 1)" stroke="none" fill-rule="evenodd"/>
    <path d="M39.157 44.461l5.562 5.562c.748.748 1.718.898 2.156.326l31.648-39.473c.464-.552.59-1.24.285-1.544l-2.26-2.26-37.39 37.39z" fill="rgba(0, 163, 198, 1)" stroke="none" fill-rule="evenodd"/>
    <rect width="25" height="13" x="22.935" y="41.935" transform="rotate(45 35.435 48.435)" rx="2" fill="rgba(216, 216, 216, 1)" stroke="none" fill-rule="evenodd"/>
  </g>
</svg>
</g></svg></g></g>
<!-- /image 88729 -->

<!-- image 98054 -->
<g id="transformed-98054" data-image="98054" transform="translate(45.91213314582802, 195.82199439278926) rotate(332, 17.087866854171974, 28.178005607210743)"><g><svg version="1.1" width="34.17573370834395px" height="56.356011214421486px" viewBox="0 0 34.17573370834395 56.356011214421486"><g id="original-98054"><svg xmlns="http://www.w3.org/2000/svg" viewBox="0 0 46 76" xmlns:xlink="http://www.w3.org/1999/xlink" version="1.1" preserveAspectRatio="xMidYMid meet">
  <rect width="46" height="76" fill-rule="evenodd" rx="6" fill="rgba(111, 130, 164, 1)" stroke="none"/>
  <path fill-rule="evenodd" d="M4 12h38v52H4z" fill="rgba(165, 181, 211, 1)" stroke="none"/>
  <path fill-rule="evenodd" d="M19 5h8a1 1 0 0 1 0 2h-8a1 1 0 0 1 0-2z" fill="rgba(81, 96, 120, 1)" stroke="none"/>
  <path fill-rule="evenodd" d="M23 66a3 3 0 1 1 0 6 3 3 0 0 1 0-6z" fill="rgba(81, 96, 120, 1)" stroke="none"/>
</svg>
</g></svg></g></g>
<!-- /image 98054 -->

<!-- image 56605 -->
<g id="transformed-56605" data-image="56605" transform="translate(53, 215) rotate(330, 9.999999999999998, 10)"><g><svg version="1.1" width="19.999999999999996px" height="20px" viewBox="0 0 19.999999999999996 20"><g id="original-56605"><svg xmlns="http://www.w3.org/2000/svg" viewBox="0 0 62 62" xmlns:xlink="http://www.w3.org/1999/xlink" version="1.1" preserveAspectRatio="xMidYMid meet">
  <circle cx="31" cy="31" r="31" fill-rule="evenodd" fill="rgba(210, 90, 54, 1)" stroke="none"/>
  <path fill-rule="evenodd" d="M32 61.984c-.332.01-.665.016-1 .016C13.88 62 0 48.12 0 31 0 13.88 13.88 0 31 0c.335 0 .668.005 1 .016v61.968z" fill="rgba(222, 109, 75, 1)" stroke="none"/>
  <path fill-rule="evenodd" d="M22 24.544c0-2.268 1.786-3.2 3.968-2.062l18.371 9.546c2.183 1.134 2.183 2.99 0 4.124L25.969 45.7C23.787 46.833 22 45.9 22 43.636V24.544z" fill="rgba(209, 209, 209, 1)" stroke="none"/>
  <path fill-rule="evenodd" d="M22 21.544c0-2.268 1.786-3.2 3.968-2.062l18.371 9.546c2.183 1.134 2.183 2.99 0 4.124L25.969 42.7C23.787 43.833 22 42.9 22 40.636V21.544z" fill="rgba(255, 255, 255, 1)" stroke="none"/>
</svg>
</g></svg></g></g>
<!-- /image 56605 -->
</defs><rect x="0" y="0" width="250" height="250" fill="rgba(102, 58, 183, 0.8488372093023255)"></rect><use xlink:href="#transformed-26389" transform="translate(-250, -250)"></use><use xlink:href="#transformed-26389" transform="translate(0, -250)"></use><use xlink:href="#transformed-26389" transform="translate(250, -250)"></use><use xlink:href="#transformed-26389" transform="translate(-250, 0)"></use><use xlink:href="#transformed-26389" transform="translate(0, 0)"></use><use xlink:href="#transformed-26389" transform="translate(250, 0)"></use><use xlink:href="#transformed-26389" transform="translate(-250, 250)"></use><use xlink:href="#transformed-26389" transform="translate(0, 250)"></use><use xlink:href="#transformed-26389" transform="translate(250, 250)"></use><use xlink:href="#transformed-27887" transform="translate(-250, -250)"></use><use xlink:href="#transformed-27887" transform="translate(0, -250)"></use><use xlink:href="#transformed-27887" transform="translate(250, -250)"></use><use xlink:href="#transformed-27887" transform="translate(-250, 0)"></use><use xlink:href="#transformed-27887" transform="translate(0, 0)"></use><use xlink:href="#transformed-27887" transform="translate(250, 0)"></use><use xlink:href="#transformed-27887" transform="translate(-250, 250)"></use><use xlink:href="#transformed-27887" transform="translate(0, 250)"></use><use xlink:href="#transformed-27887" transform="translate(250, 250)"></use><use xlink:href="#transformed-19598" transform="translate(-250, -250)"></use><use xlink:href="#transformed-19598" transform="translate(0, -250)"></use><use xlink:href="#transformed-19598" transform="translate(250, -250)"></use><use xlink:href="#transformed-19598" transform="translate(-250, 0)"></use><use xlink:href="#transformed-19598" transform="translate(0, 0)"></use><use xlink:href="#transformed-19598" transform="translate(250, 0)"></use><use xlink:href="#transformed-19598" transform="translate(-250, 250)"></use><use xlink:href="#transformed-19598" transform="translate(0, 250)"></use><use xlink:href="#transformed-19598" transform="translate(250, 250)"></use><use xlink:href="#transformed-57755" transform="translate(-250, -250)"></use><use xlink:href="#transformed-57755" transform="translate(0, -250)"></use><use xlink:href="#transformed-57755" transform="translate(250, -250)"></use><use xlink:href="#transformed-57755" transform="translate(-250, 0)"></use><use xlink:href="#transformed-57755" transform="translate(0, 0)"></use><use xlink:href="#transformed-57755" transform="translate(250, 0)"></use><use xlink:href="#transformed-57755" transform="translate(-250, 250)"></use><use xlink:href="#transformed-57755" transform="translate(0, 250)"></use><use xlink:href="#transformed-57755" transform="translate(250, 250)"></use><use xlink:href="#transformed-15209" transform="translate(-250, -250)"></use><use xlink:href="#transformed-15209" transform="translate(0, -250)"></use><use xlink:href="#transformed-15209" transform="translate(250, -250)"></use><use xlink:href="#transformed-15209" transform="translate(-250, 0)"></use><use xlink:href="#transformed-15209" transform="translate(0, 0)"></use><use xlink:href="#transformed-15209" transform="translate(250, 0)"></use><use xlink:href="#transformed-15209" transform="translate(-250, 250)"></use><use xlink:href="#transformed-15209" transform="translate(0, 250)"></use><use xlink:href="#transformed-15209" transform="translate(250, 250)"></use><use xlink:href="#transformed-66999" transform="translate(-250, -250)"></use><use xlink:href="#transformed-66999" transform="translate(0, -250)"></use><use xlink:href="#transformed-66999" transform="translate(250, -250)"></use><use xlink:href="#transformed-66999" transform="translate(-250, 0)"></use><use xlink:href="#transformed-66999" transform="translate(0, 0)"></use><use xlink:href="#transformed-66999" transform="translate(250, 0)"></use><use xlink:href="#transformed-66999" transform="translate(-250, 250)"></use><use xlink:href="#transformed-66999" transform="translate(0, 250)"></use><use xlink:href="#transformed-66999" transform="translate(250, 250)"></use><use xlink:href="#transformed-84144" transform="translate(-250, -250)"></use><use xlink:href="#transformed-84144" transform="translate(0, -250)"></use><use xlink:href="#transformed-84144" transform="translate(250, -250)"></use><use xlink:href="#transformed-84144" transform="translate(-250, 0)"></use><use xlink:href="#transformed-84144" transform="translate(0, 0)"></use><use xlink:href="#transformed-84144" transform="translate(250, 0)"></use><use xlink:href="#transformed-84144" transform="translate(-250, 250)"></use><use xlink:href="#transformed-84144" transform="translate(0, 250)"></use><use xlink:href="#transformed-84144" transform="translate(250, 250)"></use><use xlink:href="#transformed-88729" transform="translate(-250, -250)"></use><use xlink:href="#transformed-88729" transform="translate(0, -250)"></use><use xlink:href="#transformed-88729" transform="translate(250, -250)"></use><use xlink:href="#transformed-88729" transform="translate(-250, 0)"></use><use xlink:href="#transformed-88729" transform="translate(0, 0)"></use><use xlink:href="#transformed-88729" transform="translate(250, 0)"></use><use xlink:href="#transformed-88729" transform="translate(-250, 250)"></use><use xlink:href="#transformed-88729" transform="translate(0, 250)"></use><use xlink:href="#transformed-88729" transform="translate(250, 250)"></use><use xlink:href="#transformed-98054" transform="translate(-250, -250)"></use><use xlink:href="#transformed-98054" transform="translate(0, -250)"></use><use xlink:href="#transformed-98054" transform="translate(250, -250)"></use><use xlink:href="#transformed-98054" transform="translate(-250, 0)"></use><use xlink:href="#transformed-98054" transform="translate(0, 0)"></use><use xlink:href="#transformed-98054" transform="translate(250, 0)"></use><use xlink:href="#transformed-98054" transform="translate(-250, 250)"></use><use xlink:href="#transformed-98054" transform="translate(0, 250)"></use><use xlink:href="#transformed-98054" transform="translate(250, 250)"></use><use xlink:href="#transformed-56605" transform="translate(-250, -250)"></use><use xlink:href="#transformed-56605" transform="translate(0, -250)"></use><use xlink:href="#transformed-56605" transform="translate(250, -250)"></use><use xlink:href="#transformed-56605" transform="translate(-250, 0)"></use><use xlink:href="#transformed-56605" transform="translate(0, 0)"></use><use xlink:href="#transformed-56605" transform="translate(250, 0)"></use><use xlink:href="#transformed-56605" transform="translate(-250, 250)"></use><use xlink:href="#transformed-56605" transform="translate(0, 250)"></use><use xlink:href="#transformed-56605" transform="translate(250, 250)"></use></svg>